<?xml version="1.0" encoding="utf-8"?>
<!-- Generator: Adobe Illustrator 18.1.1, SVG Export Plug-In . SVG Version: 6.00 Build 0)  -->
<!DOCTYPE svg PUBLIC "-//W3C//DTD SVG 1.1//EN" "http://www.w3.org/Graphics/SVG/1.1/DTD/svg11.dtd">
<svg version="1.1" id="Layer_1" xmlns="http://www.w3.org/2000/svg" xmlns:xlink="http://www.w3.org/1999/xlink" x="0px" y="0px"
	 viewBox="0 0 1300 214" enable-background="new 0 0 1300 214" xml:space="preserve">
<g>
	<path fill="#FFFFFF" d="M17.6,156l-1.8,0L17.6,156L17.6,156l-1.8,0L17.6,156L17.6,156c0-0.1,0-0.9,0.2-2c0.3-1.6,1-3.9,2.5-6
		c0.8-1,1.7-2,3-2.9c1.2-0.9,2.8-1.6,4.8-2.1c0.1,0,0.3-0.1,0.4-0.1c1.1-0.3,2-0.3,2.9-0.2c1.6,0.2,3.1,0.8,4.8,1.8
		c1.3,0.7,2.6,1.6,4,2.6c2.1,1.4,4.5,3,7.3,4c1.4,0.5,2.9,0.8,4.6,1c1.6,0.1,3.4,0,5.2-0.4c0.2,0,0.4-0.1,0.6-0.1c4-1,7.2-2.9,9.5-5
		c1.8-1.6,3.1-3.4,4.1-5.2c1.5-2.6,2.2-5.2,2.6-7.1c0.4-1.9,0.4-3.2,0.4-3.4c0-1.6-1.2-2.9-2.8-2.9c-1.6,0-2.9,1.2-2.9,2.8l1.6,0
		l-1.6,0v0l1.6,0l-1.6,0c0,0,0,0,0,0.1c0,0.7-0.3,3.9-2,7.1c-0.8,1.6-2,3.2-3.7,4.6c-1.6,1.4-3.8,2.6-6.7,3.3
		c-0.2,0-0.3,0.1-0.5,0.1c-1.3,0.3-2.5,0.4-3.6,0.3c-1.9-0.1-3.6-0.8-5.4-1.7c-1.3-0.7-2.6-1.6-4-2.5c-2.1-1.4-4.2-2.9-6.8-4
		c-1.3-0.5-2.7-0.9-4.2-1.1c-1.5-0.2-3.1-0.1-4.8,0.3c-0.2,0-0.4,0.1-0.6,0.1c-3.6,0.9-6.5,2.6-8.6,4.5c-1.6,1.5-2.8,3.1-3.6,4.7
		c-1.3,2.4-1.9,4.7-2.2,6.4c-0.3,1.7-0.3,2.9-0.3,3c0,1.6,1.3,2.9,2.9,2.8C16.4,158.9,17.6,157.6,17.6,156L17.6,156z"/>
	<path fill="#FFFFFF" d="M17.6,156l0-0.9l-1.8,0l0,1.8l2.7,0l-0.1-1.8l-2.7,0l0,1.8l2.7,0l0-1L17.6,156h0.9c0-0.1,0-0.8,0.2-1.8v0
		c0.3-1.5,0.9-3.7,2.3-5.6v0c0.7-1,1.6-1.9,2.7-2.6v0c1.2-0.8,2.6-1.5,4.5-2c0.1,0,0.3-0.1,0.4-0.1l0,0c1-0.2,1.8-0.3,2.6-0.2v0
		c1.4,0.2,2.8,0.7,4.5,1.7h0c1.2,0.7,2.5,1.6,3.9,2.6l0,0l0,0c2.1,1.4,4.5,3,7.5,4.1l0,0c1.5,0.5,3.1,0.9,4.8,1
		c1.7,0.1,3.6,0,5.5-0.5c0.2,0,0.4-0.1,0.6-0.2l0,0c4.1-1.1,7.4-3,9.9-5.2l0,0c1.9-1.7,3.3-3.6,4.3-5.4c1.6-2.7,2.3-5.4,2.7-7.4v0
		c0.4-2,0.4-3.3,0.4-3.5l0-0.1l0,0.1c0-0.3,0-0.7-0.1-1c-0.4-1.6-1.9-2.8-3.6-2.8c-0.3,0-0.7,0-1,0.1c-1.6,0.4-2.8,1.9-2.9,3.6
		l0,0.9l2.5,0l0-1.8l-2.6-0.1l0.1,1.8l2.4,0l0-1.8l-2.5-0.1l0,0.9l0.1,0l-0.1,0v0l0.1,0l-0.1,0c0,0,0,0,0,0.1l0,0l0,0
		c0,0.3-0.1,1.2-0.4,2.4c-0.3,1.2-0.8,2.8-1.5,4.3l0,0l0,0c-0.8,1.5-1.9,3-3.4,4.3l-0.1,0l0.1,0c-1.6,1.3-3.5,2.4-6.3,3.2
		c-0.1,0-0.3,0.1-0.5,0.1h0c-1.2,0.3-2.3,0.4-3.3,0.3h0c-1.7-0.1-3.3-0.7-5-1.6c-1.3-0.7-2.6-1.5-3.9-2.5l0,0c-2.1-1.4-4.3-3-7-4.1
		l-0.1,0l0.1,0c-1.4-0.6-2.9-1-4.5-1.1l0,0c-1.6-0.2-3.3-0.1-5.1,0.3v0c-0.2,0-0.4,0.1-0.6,0.1l0,0c-3.7,1-6.7,2.7-8.9,4.7l0,0
		c-1.7,1.5-2.9,3.2-3.8,4.9l0,0c-1.4,2.5-2,4.9-2.3,6.7l0,0.1l0-0.1c-0.2,0.9-0.2,1.7-0.3,2.2c0,0.5,0,0.9,0,1v0
		c0,0.3,0,0.6,0.1,0.9c0.4,1.7,1.9,2.9,3.7,2.8c0.3,0,0.6,0,0.9-0.1c1.7-0.4,2.9-1.9,2.9-3.7l0-1.2l-1.1,0.3L17.6,156l0-0.9
		L17.6,156l0.2,0.9l0,0L17.6,156l-0.9,0c0,0.9-0.6,1.7-1.5,1.9c-0.1,0-0.3,0.1-0.5,0.1c-0.9,0-1.7-0.6-1.9-1.5
		c0-0.1-0.1-0.3-0.1-0.5l0,0c0-0.1,0-0.4,0-0.8c0-0.5,0.1-1.2,0.3-2l0,0c0.3-1.6,0.9-3.8,2.1-6.1l0,0c0.8-1.5,1.9-3,3.5-4.4l0,0
		c2-1.8,4.7-3.4,8.2-4.3l0,0c0.2,0,0.4-0.1,0.5-0.1l0,0c1.6-0.4,3.1-0.4,4.5-0.3l0,0c1.4,0.1,2.7,0.5,4,1v0c2.5,1,4.6,2.5,6.7,3.9v0
		c1.4,0.9,2.7,1.8,4.1,2.6c1.8,1,3.7,1.6,5.7,1.8l0,0c1.2,0.1,2.4,0,3.8-0.3l0,0c0.2,0,0.3-0.1,0.5-0.1c3-0.8,5.3-2,7-3.5l0,0
		c1.7-1.5,3-3.2,3.9-4.9v0c0.9-1.7,1.4-3.4,1.7-4.7c0.3-1.3,0.4-2.4,0.4-2.8l-0.9,0l0.9,0.1c0-0.1,0-0.2,0-0.2l-0.9,0l0,0.9l1.6,0
		l0-1.8l-1.6,0l0,0.9l0.9-0.1l0,0l-0.9,0l0,0.9l1.6,0l0-1.8l-1.6,0l0,0.9l0.9,0c0-0.9,0.6-1.7,1.5-1.9c0.2,0,0.3-0.1,0.5-0.1
		c0.9,0,1.7,0.6,1.9,1.5c0,0.2,0.1,0.3,0.1,0.5l0,0c0,0.1,0,1.3-0.4,3.2l0,0c-0.4,1.9-1.1,4.3-2.5,6.9c-1,1.7-2.2,3.4-3.9,4.9l0,0
		c-2.2,2.1-5.3,3.8-9.1,4.8l0,0c-0.2,0-0.4,0.1-0.6,0.1c-1.7,0.4-3.4,0.5-4.9,0.4c-1.6-0.1-3-0.4-4.3-0.9l0,0c-2.7-1-5-2.4-7.1-3.9
		l0,0c-1.4-0.9-2.7-1.9-4-2.6l0,0c-1.7-1-3.4-1.7-5.2-1.9h0c-1-0.1-2.1-0.1-3.2,0.2l0,0c-0.1,0-0.3,0.1-0.4,0.1
		c-2.1,0.5-3.7,1.3-5,2.2l0,0c-1.3,0.9-2.4,2-3.2,3.1l0,0c-1.6,2.2-2.3,4.6-2.6,6.3l0,0c-0.2,1.1-0.2,1.9-0.2,2.1l0,0l0,0L17.6,156
		l0-0.9l-1.8,0l0,1.8l1.8,0L17.6,156l-0.9,0v0L17.6,156l0-0.9l-1.8,0l0,1.8l1.9,0l0.1,0L17.6,156z"/>
</g>
<g>
	<path fill="#FFFFFF" d="M131.8,61.5l49.8,40c1.1,0.9,2.6,0.7,3.5-0.4c0.9-1.1,0.7-2.6-0.4-3.5l-49.8-40c-1.1-0.9-2.6-0.7-3.5,0.4
		C130.6,59.1,130.7,60.6,131.8,61.5"/>
	<path fill="#FFFFFF" d="M131.3,62.1l49.8,40c0.6,0.5,1.3,0.7,2,0.7c1,0,1.9-0.4,2.6-1.2c0.5-0.6,0.7-1.3,0.7-2c0-1-0.4-1.9-1.2-2.5
		l-49.8-40c-0.6-0.5-1.3-0.7-2-0.7c-1,0-1.9,0.4-2.6,1.2c-0.5,0.6-0.7,1.3-0.7,2C130.1,60.5,130.5,61.5,131.3,62.1l1-1.2
		c-0.4-0.3-0.6-0.8-0.6-1.3c0-0.4,0.1-0.7,0.4-1.1c0.3-0.4,0.8-0.6,1.3-0.6c0.4,0,0.7,0.1,1.1,0.4l49.8,40c0.4,0.3,0.6,0.8,0.6,1.3
		c0,0.4-0.1,0.7-0.4,1.1c-0.3,0.4-0.8,0.6-1.3,0.6c-0.4,0-0.7-0.1-1.1-0.4l-49.8-40L131.3,62.1z"/>
	<path fill="#FFFFFF" d="M183,62.1c0,2.2-1.7,4-3.9,4c-2.1,0-3.9-1.8-3.9-4c0-2.2,1.7-4,3.9-4C181.2,58.1,183,59.9,183,62.1z"/>
	<path fill="#FFFFFF" d="M183,62.1h-0.8c0,0.9-0.4,1.7-0.9,2.3c-0.6,0.6-1.3,0.9-2.2,0.9c-0.8,0-1.6-0.4-2.2-0.9
		c-0.6-0.6-0.9-1.4-0.9-2.3c0-0.9,0.4-1.7,0.9-2.3c0.6-0.6,1.3-0.9,2.2-0.9c0.8,0,1.6,0.3,2.2,0.9c0.6,0.6,0.9,1.4,0.9,2.3H183h0.8
		c0-1.3-0.5-2.5-1.3-3.4c-0.8-0.9-2-1.4-3.3-1.4c-1.3,0-2.5,0.5-3.3,1.4c-0.8,0.9-1.3,2.1-1.3,3.4c0,1.3,0.5,2.5,1.3,3.4
		c0.8,0.9,2,1.4,3.3,1.4c1.3,0,2.5-0.5,3.3-1.4c0.8-0.9,1.3-2.1,1.3-3.4H183z"/>
	<ellipse fill="#FFFFFF" cx="136.9" cy="93.9" rx="3.9" ry="4"/>
	<path fill="#FFFFFF" d="M140.8,93.9H140c0,0.9-0.4,1.7-0.9,2.3c-0.6,0.6-1.3,0.9-2.2,0.9c-0.8,0-1.6-0.3-2.2-0.9
		c-0.6-0.6-0.9-1.4-0.9-2.3c0-0.9,0.4-1.7,0.9-2.3c0.6-0.6,1.3-0.9,2.2-0.9c0.8,0,1.6,0.4,2.2,0.9c0.6,0.6,0.9,1.4,0.9,2.3H140.8
		h0.8c0-1.3-0.5-2.5-1.3-3.4c-0.8-0.9-2-1.4-3.3-1.4c-1.3,0-2.5,0.5-3.3,1.4c-0.8,0.9-1.3,2.1-1.3,3.4c0,1.3,0.5,2.5,1.3,3.4
		c0.8,0.9,2,1.4,3.3,1.4c1.3,0,2.5-0.5,3.3-1.4c0.8-0.9,1.3-2.1,1.3-3.4H140.8z"/>
</g>
<path fill="#FFFFFF" d="M-23.7,27.9l89.8,56.9c2,1.3,4.7,0.7,6-1.4c1.3-2,0.7-4.7-1.4-6l-89.8-56.9c-2-1.3-4.7-0.7-6,1.3
	C-26.4,23.9-25.8,26.6-23.7,27.9"/>
<path fill="#FFFFFF" d="M-24.7,29.4l89.8,56.9c2.9,1.8,6.6,1,8.4-1.9c1.8-2.9,1-6.6-1.9-8.4L-18.1,19c-2.9-1.8-6.6-1-8.4,1.9
	C-28.4,23.8-27.5,27.6-24.7,29.4l1.9-3c-1.2-0.8-1.6-2.4-0.8-3.6c0.8-1.2,2.4-1.6,3.6-0.8l89.8,56.9c1.2,0.8,1.6,2.4,0.8,3.6
	c-0.8,1.2-2.4,1.6-3.6,0.8l-89.8-56.9L-24.7,29.4z"/>
<path fill="#FFFFFF" d="M-12.4,10l89.8,56.9c2,1.3,4.7,0.7,6-1.4c1.3-2,0.7-4.7-1.4-6L-7.8,2.6c-2-1.3-4.7-0.7-6,1.3
	C-15.1,6-14.5,8.7-12.4,10"/>
<path fill="#FFFFFF" d="M-13.4,11.5l89.8,56.9c2.9,1.8,6.6,1,8.4-1.9c1.8-2.9,1-6.6-1.9-8.4L-6.8,1.2c-2.9-1.8-6.6-1-8.4,1.9
	C-17.1,5.9-16.2,9.7-13.4,11.5l1.9-3c-1.2-0.8-1.6-2.4-0.8-3.6c0.8-1.2,2.4-1.6,3.6-0.8L81.1,61c1.2,0.8,1.6,2.4,0.8,3.6
	c-0.8,1.2-2.4,1.6-3.6,0.8L-11.5,8.5L-13.4,11.5z"/>
<g>
	<path fill="#FFFFFF" d="M252.7,136.3L201.2,159c-1.2,0.5-1.7,1.9-1.2,3c0.5,1.2,1.9,1.7,3,1.2l51.5-22.8c1.2-0.5,1.7-1.9,1.2-3
		C255.2,136.3,253.8,135.7,252.7,136.3"/>
	<path fill="#FFFFFF" d="M252.3,135.4l-51.5,22.8c-1.6,0.7-2.4,2.6-1.6,4.3c0.7,1.6,2.6,2.4,4.3,1.6l51.5-22.8
		c1.6-0.7,2.4-2.6,1.7-4.3C255.8,135.4,253.9,134.7,252.3,135.4l0.8,1.7c0.7-0.3,1.5,0,1.8,0.7c0.3,0.7,0,1.5-0.7,1.8l-51.5,22.8
		c-0.7,0.3-1.5,0-1.8-0.7c-0.3-0.7,0-1.5,0.7-1.8l51.5-22.8L252.3,135.4z"/>
	<path fill="#FFFFFF" d="M257.2,146.5l-51.5,22.8c-1.2,0.5-1.7,1.9-1.2,3c0.5,1.2,1.9,1.7,3,1.2l51.5-22.8c1.2-0.5,1.7-1.9,1.2-3
		C259.7,146.5,258.4,146,257.2,146.5"/>
	<path fill="#FFFFFF" d="M256.8,145.7l-51.5,22.8c-1.6,0.7-2.4,2.6-1.6,4.3c0.7,1.6,2.6,2.4,4.3,1.6l51.5-22.8
		c1.6-0.7,2.4-2.6,1.7-4.3C260.4,145.7,258.5,144.9,256.8,145.7l0.8,1.7c0.7-0.3,1.5,0,1.8,0.7c0.3,0.7,0,1.5-0.7,1.8l-51.5,22.8
		c-0.7,0.3-1.5,0-1.8-0.7c-0.3-0.7,0-1.5,0.7-1.8l51.5-22.8L256.8,145.7z"/>
</g>
<g>
	<ellipse fill="#FFFFFF" cx="138.8" cy="202.5" rx="4.5" ry="4.7"/>
	<path fill="#FFFFFF" d="M143.3,202.5h-0.9c0,1.1-0.4,2-1.1,2.7c-0.7,0.7-1.5,1.1-2.5,1.1c-1,0-1.9-0.4-2.5-1.1
		c-0.6-0.7-1.1-1.6-1.1-2.7c0-1.1,0.4-2,1.1-2.7c0.7-0.7,1.5-1.1,2.5-1.1c1,0,1.9,0.4,2.5,1.1c0.7,0.7,1.1,1.6,1.1,2.7H143.3h0.9
		c0-1.5-0.6-2.9-1.6-3.9c-1-1-2.3-1.7-3.8-1.6c-1.5,0-2.9,0.6-3.9,1.6c-1,1-1.6,2.4-1.6,3.9c0,1.5,0.6,2.9,1.6,3.9
		c1,1,2.3,1.6,3.9,1.6c1.5,0,2.9-0.6,3.8-1.6c1-1,1.6-2.4,1.6-3.9H143.3z"/>
	<path fill="#FFFFFF" d="M97.2,205.3c0-13.3,5.4-25.4,14.1-34.2c8.7-8.7,20.8-14.1,34.2-14.1c1.5,0,2.8-1.2,2.8-2.8
		c0-1.5-1.2-2.8-2.8-2.8c-14.9,0-28.3,6-38.1,15.8c-9.7,9.7-15.8,23.2-15.8,38.1c0,1.5,1.2,2.8,2.8,2.8
		C96,208,97.2,206.8,97.2,205.3z"/>
	<path fill="#FFFFFF" d="M97.2,205.3h0.6c0-13.2,5.3-25.1,14-33.7c8.6-8.6,20.5-14,33.7-14c1.9,0,3.4-1.5,3.4-3.4
		c0-1.9-1.5-3.4-3.4-3.4c-15,0-28.7,6.1-38.5,15.9c-9.8,9.8-15.9,23.5-15.9,38.5h0.6l-0.6,0v0h0.6l-0.6,0c0,0,0,0.1,0,0.1l0.6-0.1
		h-0.6c0,1.9,1.5,3.4,3.4,3.4c1.9,0,3.4-1.5,3.4-3.4H97.2h-0.6c0,0.6-0.2,1.1-0.6,1.5c-0.4,0.4-0.9,0.6-1.5,0.6
		c-0.6,0-1.1-0.2-1.5-0.6c-0.4-0.4-0.6-0.9-0.6-1.5v-0.1l0-0.1l-0.6,0.1h0.6l0-0.1l-0.6,0.1h0.6h-0.6l0.6,0v0h-0.6l0.6,0v0
		c0-14.7,6-28,15.6-37.6c9.6-9.6,22.9-15.6,37.6-15.6c0.6,0,1.1,0.2,1.5,0.6c0.4,0.4,0.6,0.9,0.6,1.5c0,0.6-0.2,1.1-0.6,1.5
		c-0.4,0.4-0.9,0.6-1.5,0.6c-13.5,0-25.7,5.5-34.6,14.3c-8.9,8.9-14.3,21.1-14.3,34.6H97.2z"/>
	<path fill="#FFFFFF" d="M107.6,206.3c0-11,4.5-21,11.7-28.2c7.2-7.2,17.2-11.7,28.2-11.7c1.3,0,2.3-1,2.3-2.3c0-1.3-1-2.3-2.3-2.3
		c-12.3,0-23.4,5-31.4,13c-8,8-13,19.1-13,31.4c0,1.3,1,2.3,2.3,2.3C106.6,208.6,107.6,207.6,107.6,206.3z"/>
	<path fill="#FFFFFF" d="M107.6,206.3h0.6c0-10.8,4.4-20.6,11.5-27.7c7.1-7.1,16.9-11.5,27.7-11.5c1.6,0,2.9-1.3,2.9-2.9
		c0-1.6-1.3-2.9-2.9-2.9c-12.4,0-23.7,5-31.8,13.2c-8.1,8.1-13.2,19.4-13.2,31.8h0.5l-0.5,0v0h0.5l-0.5,0c0,0,0,0,0,0.1l0.6-0.1
		h-0.6c0,1.6,1.3,2.9,2.9,2.9c1.6,0,2.9-1.3,2.9-2.9H107.6H107c0,0.9-0.7,1.7-1.7,1.7c-0.9,0-1.7-0.7-1.7-1.7v0l0,0l-0.6,0.1h0.6
		l0-0.1l-0.6,0.1h0.6h-0.5l0.5,0v0h-0.5l0.5,0v0c0-12.1,4.9-23,12.8-31c7.9-7.9,18.9-12.8,31-12.8c0.9,0,1.7,0.8,1.7,1.7
		c0,0.9-0.7,1.7-1.7,1.7c-11.2,0-21.3,4.5-28.6,11.8c-7.3,7.3-11.8,17.4-11.8,28.6H107.6z"/>
</g>
<g>
	<path fill="#FFFFFF" d="M368.2,75.7c-2.3,2.1-5.7,2.1-7.8-0.1c-2-2.2-1.9-5.7,0.4-7.8c2.3-2.1,5.7-2.1,7.8,0.1
		C370.6,70.1,370.4,73.5,368.2,75.7z"/>
	<path fill="#FFFFFF" d="M368.2,75.7l-0.8-0.8c-0.9,0.9-2,1.3-3.1,1.3c-1.1,0-2.2-0.4-3-1.2l-0.1-0.1c-0.8-0.8-1.2-1.9-1.1-3
		c0-1.1,0.5-2.2,1.3-3.1l0.1-0.1l0,0c0.9-0.8,2-1.3,3.1-1.3c1.1,0,2.2,0.4,3,1.2l0.1,0.1c0.8,0.8,1.2,1.9,1.1,3
		c0,1.1-0.5,2.2-1.3,3.1l-0.1,0.1l0,0L368.2,75.7l0.8,0.8c0,0,0.1-0.1,0.2-0.2c1.3-1.3,1.9-2.9,2-4.6c0.1-1.6-0.5-3.3-1.7-4.6
		c-0.1-0.1-0.1-0.1-0.1-0.2c-1.2-1.2-2.9-1.9-4.6-1.8c-1.7,0-3.3,0.6-4.6,1.9l0,0c-0.1,0.1-0.1,0.1-0.2,0.2c-1.3,1.3-1.9,2.9-2,4.6
		c-0.1,1.6,0.5,3.3,1.7,4.6c0.1,0.1,0.1,0.1,0.1,0.2c1.2,1.2,2.9,1.9,4.6,1.9c1.7,0,3.3-0.6,4.6-1.9l0,0L368.2,75.7z"/>
	<path fill="#FFFFFF" d="M324.6-3l13.2,88.6c0.3,1.9,2.1,3.2,4,2.9c1.9-0.3,3.2-2.1,2.9-4L331.5-4.1c-0.3-1.9-2.1-3.2-4-2.9
		C325.6-6.7,324.3-4.9,324.6-3"/>
	<path fill="#FFFFFF" d="M377.5-3.4l27.2,66.8c0.6,1.4,2.2,2.1,3.6,1.5c1.4-0.6,2.1-2.2,1.5-3.6L382.6-5.5c-0.6-1.4-2.2-2.1-3.5-1.5
		C377.6-6.4,377-4.8,377.5-3.4"/>
	<path fill="#FFFFFF" d="M376.9-3.1l27.2,66.9c0.2,0.4,0.4,0.8,0.8,1.1c0.9,0.9,2.4,1.3,3.7,0.7c0.4-0.2,0.8-0.4,1.1-0.8
		c1-1,1.3-2.4,0.7-3.7L383.3-5.7c-0.2-0.4-0.4-0.8-0.8-1.1c-0.9-0.9-2.4-1.3-3.7-0.8c-0.4,0.2-0.8,0.4-1.1,0.8
		C376.7-5.9,376.3-4.4,376.9-3.1l1.4-0.6c-0.3-0.8-0.1-1.6,0.4-2.2c0.2-0.2,0.4-0.3,0.7-0.4c0.8-0.3,1.6-0.1,2.2,0.4
		c0.2,0.2,0.3,0.4,0.4,0.7l27.2,66.8c0.3,0.8,0.1,1.6-0.4,2.2c-0.2,0.2-0.4,0.3-0.7,0.4c-0.8,0.3-1.6,0.1-2.2-0.4
		c-0.2-0.2-0.3-0.4-0.4-0.7L378.2-3.7L376.9-3.1L376.9-3.1z"/>
	<path fill="#FFFFFF" d="M368.6,5.6l27.2,66.8c0.6,1.4,2.2,2.1,3.6,1.5c1.4-0.6,2.1-2.2,1.5-3.5L373.6,3.5c-0.6-1.4-2.2-2.1-3.6-1.5
		C368.7,2.6,368,4.2,368.6,5.6"/>
	<path fill="#FFFFFF" d="M367.9,5.9l27.2,66.8c0.2,0.4,0.4,0.8,0.8,1.1c0.9,0.9,2.4,1.3,3.7,0.8c0.4-0.2,0.8-0.4,1.1-0.8
		c1-1,1.3-2.4,0.7-3.7L374.3,3.3c-0.2-0.4-0.4-0.8-0.8-1.1c-1-0.9-2.4-1.3-3.7-0.8c-0.4,0.2-0.8,0.4-1.1,0.8
		C367.7,3.1,367.4,4.6,367.9,5.9l1.4-0.5c-0.3-0.8-0.1-1.6,0.4-2.2c0.2-0.2,0.4-0.3,0.7-0.4c0.8-0.3,1.6-0.1,2.2,0.4
		c0.2,0.2,0.3,0.4,0.4,0.7l27.2,66.8c0.3,0.8,0.1,1.6-0.4,2.2c-0.2,0.2-0.4,0.3-0.7,0.4c-0.8,0.3-1.6,0.1-2.2-0.4
		c-0.2-0.2-0.3-0.4-0.4-0.7L369.3,5.3L367.9,5.9L367.9,5.9z"/>
</g>
<g>
	<path fill="#FFFFFF" d="M264.2,22.9L230.7,88c-0.3,0.6-0.4,1.2-0.2,1.9c0.2,0.6,0.6,1.1,1.2,1.4l37.1,19c1.2,0.6,2.7,0.1,3.3-1.1
		c0.6-1.2,0.1-2.7-1.1-3.3l-35-17.9l32.3-63c0.6-1.2,0.1-2.7-1.1-3.3C266.2,21.2,264.8,21.7,264.2,22.9z"/>
	<path fill="#FFFFFF" d="M264.2,22.9l-0.7-0.3l-33.4,65.2c-0.4,0.8-0.5,1.6-0.2,2.4c0.3,0.8,0.8,1.5,1.6,1.9l37.1,19
		c1.6,0.8,3.5,0.2,4.3-1.4c0.8-1.6,0.2-3.5-1.4-4.3l-34.3-17.6l32-62.3c0.8-1.6,0.2-3.5-1.4-4.3c-1.6-0.8-3.5-0.2-4.3,1.4
		L264.2,22.9l0.7,0.3c0.4-0.8,1.4-1.1,2.3-0.7c0.8,0.4,1.1,1.4,0.7,2.2l-32.6,63.7l35.6,18.3c0.4,0.2,0.7,0.6,0.8,1
		c0.1,0.4,0.1,0.9-0.1,1.3c-0.2,0.4-0.6,0.7-1,0.8c-0.4,0.1-0.9,0.1-1.3-0.1l-37.1-19c-0.4-0.2-0.7-0.6-0.8-1
		c-0.1-0.4-0.1-0.9,0.1-1.3l33.4-65.2L264.2,22.9z"/>
	<path fill="#FFFFFF" d="M274.4,28.4l-27.2,53c-0.5,0.9-0.1,2.1,0.8,2.6c0.9,0.5,2.1,0.1,2.6-0.8l27.2-53c0.5-0.9,0.1-2.1-0.8-2.6
		C276.1,27.1,274.9,27.5,274.4,28.4"/>
	<path fill="#FFFFFF" d="M273.8,28l-27.2,53c-0.7,1.3-0.2,2.9,1.2,3.6c1.3,0.7,2.9,0.2,3.6-1.2l27.2-53c0.7-1.3,0.2-2.9-1.2-3.6
		C276,26.2,274.4,26.7,273.8,28l1.4,0.7c0.3-0.6,1-0.8,1.5-0.5c0.6,0.3,0.8,1,0.5,1.5l-27.2,53c-0.3,0.6-1,0.8-1.5,0.5
		c-0.6-0.3-0.8-1-0.5-1.5l27.2-53L273.8,28z"/>
</g>
<g>
	<path fill="#FFFFFF" d="M752.1,39.3l1.8-0.3L752.1,39.3L752.1,39.3l1.8-0.3L752.1,39.3L752.1,39.3c0,0.1,0.1,0.9,0.1,2.1
		c-0.1,1.7-0.4,4.2-1.7,6.5c-0.6,1.2-1.5,2.3-2.6,3.4c-1.2,1.1-2.6,2-4.6,2.9c-0.1,0.1-0.3,0.1-0.4,0.2c-1.1,0.4-2.1,0.6-3,0.6
		c-1.7,0-3.3-0.4-5.2-1.2c-1.4-0.6-2.9-1.3-4.5-2.1c-2.4-1.2-5-2.4-8.1-3c-1.5-0.3-3.2-0.5-4.9-0.3c-1.7,0.1-3.5,0.5-5.3,1.2
		c-0.2,0.1-0.4,0.2-0.6,0.2c-4,1.6-7,4-9.1,6.5c-1.6,1.9-2.7,4-3.5,5.9c-1.2,2.9-1.6,5.7-1.7,7.7c-0.1,2,0,3.4,0,3.5
		c0.2,1.6,1.7,2.8,3.4,2.6c1.6-0.2,2.8-1.7,2.6-3.4l-1.6,0.2l1.6-0.2l0,0l-1.6,0.2l1.6-0.2c0,0,0,0,0-0.1c-0.1-0.7-0.2-4.1,1.1-7.6
		c0.6-1.8,1.6-3.6,3.1-5.3c1.5-1.7,3.5-3.2,6.4-4.4c0.2-0.1,0.3-0.1,0.5-0.2c1.3-0.5,2.5-0.8,3.6-0.8c2-0.1,3.8,0.3,5.8,1
		c1.5,0.5,2.9,1.3,4.5,2c2.3,1.1,4.8,2.4,7.6,3.1c1.4,0.4,2.9,0.6,4.5,0.5c1.6-0.1,3.3-0.4,4.9-1c0.2-0.1,0.4-0.1,0.6-0.2
		c3.6-1.5,6.3-3.6,8.2-5.9c1.4-1.7,2.4-3.6,3.1-5.3c1-2.6,1.3-5.1,1.4-6.9c0.1-1.8-0.1-3-0.1-3.2c-0.3-1.6-1.8-2.8-3.4-2.5
		C753,36.1,751.9,37.6,752.1,39.3L752.1,39.3z"/>
	<path fill="#FFFFFF" d="M752.1,39.3l0.1,0.9l1.8-0.3l-0.3-1.9l-2.8,0.4l0.4,1.9l2.7-0.4l-0.3-1.9l-2.8,0.4l0.2,1L752.1,39.3
		l-0.9,0.1c0,0.1,0.1,0.8,0.1,1.9v0c-0.1,1.6-0.4,3.9-1.6,6.1v0c-0.6,1.1-1.4,2.1-2.4,3.1v0c-1.1,1-2.5,1.9-4.3,2.7
		c-0.1,0.1-0.3,0.1-0.4,0.2l0,0c-1,0.4-1.8,0.5-2.7,0.6l0,0c-1.5,0-3-0.3-4.8-1.1v0c-1.4-0.6-2.8-1.3-4.4-2.1l0,0l0,0
		c-2.4-1.2-5.1-2.5-8.3-3.1l0,0c-1.6-0.3-3.3-0.5-5.1-0.4c-1.8,0.1-3.7,0.5-5.6,1.3c-0.2,0.1-0.4,0.2-0.6,0.2l0,0
		c-4.1,1.7-7.2,4.1-9.5,6.8l0,0c-1.7,2-2.8,4.1-3.7,6.2c-1.2,3.1-1.6,5.9-1.8,8v0c-0.1,2.1,0,3.5,0.1,3.7l0,0.1l0-0.1
		c0,0.4,0.1,0.7,0.3,1c0.7,1.6,2.3,2.6,4.1,2.4c0.4,0,0.7-0.1,1-0.3c1.6-0.7,2.6-2.3,2.4-4.1l-0.1-0.9l-2.6,0.3l0.2,1.9l2.7-0.3
		l-0.4-1.9l-2.5,0.3l0.2,1.9l2.6-0.3l-0.1-0.9l-0.1,0l0.1,0v0l-0.1,0l0.1,0c0,0,0,0,0-0.1l0,0l0,0c0-0.3-0.1-1.3,0-2.6
		c0.1-1.3,0.4-3,1-4.6l0,0l0,0c0.6-1.7,1.5-3.4,2.9-5l0.1-0.1l-0.1,0.1c1.4-1.6,3.3-3,6.1-4.2c0.1-0.1,0.3-0.1,0.5-0.2l0,0
		c1.2-0.5,2.3-0.7,3.4-0.8v0c1.8-0.1,3.5,0.2,5.4,0.9c1.4,0.5,2.9,1.2,4.4,2l0,0c2.3,1.1,4.9,2.4,7.8,3.2l0.1,0l-0.1,0
		c1.5,0.4,3.1,0.6,4.8,0.5h0c1.7-0.1,3.5-0.4,5.2-1.1l0,0c0.2-0.1,0.4-0.2,0.6-0.2l0,0c3.7-1.5,6.5-3.7,8.5-6.2l0,0
		c1.5-1.8,2.5-3.8,3.2-5.6l0,0c1.1-2.8,1.4-5.3,1.4-7.2l0-0.1l0,0.1c0-0.9,0-1.7,0-2.3c0-0.6-0.1-0.9-0.1-1l0,0
		c0-0.3-0.1-0.6-0.2-0.9c-0.7-1.7-2.4-2.7-4.3-2.4c-0.3,0-0.6,0.1-0.9,0.2c-1.7,0.7-2.7,2.4-2.4,4.3l0.2,1.2l1.1-0.5L752.1,39.3
		l0.1,0.9L752.1,39.3l-0.4-0.9l0,0L752.1,39.3l0.9-0.1c-0.1-1,0.4-1.9,1.2-2.2c0.1-0.1,0.3-0.1,0.5-0.1c1-0.2,1.9,0.4,2.2,1.2
		c0.1,0.1,0.1,0.3,0.1,0.5l0,0c0,0.1,0.1,0.4,0.1,0.9c0,0.5,0.1,1.2,0,2.1l0,0c-0.1,1.7-0.4,4.1-1.3,6.6l0,0
		c-0.6,1.7-1.6,3.4-2.9,5.1v0c-1.8,2.2-4.4,4.2-7.8,5.6l0,0c-0.2,0.1-0.4,0.1-0.5,0.2l0,0c-1.6,0.6-3.1,0.9-4.6,1l0,0
		c-1.5,0-2.9-0.1-4.3-0.5l0,0c-2.7-0.7-5.1-1.9-7.5-3.1l0,0c-1.6-0.8-3.1-1.5-4.6-2.1c-2-0.7-4-1.2-6.2-1l0,0
		c-1.2,0.1-2.5,0.3-3.9,0.9l0,0c-0.2,0.1-0.3,0.1-0.5,0.2c-3,1.2-5.2,2.9-6.8,4.6l0,0c-1.6,1.8-2.6,3.7-3.3,5.6v0
		c-0.7,1.9-1,3.7-1.1,5.1c-0.1,1.4-0.1,2.5,0,2.9l0.9-0.1l-0.9,0.1c0,0.1,0,0.2,0,0.2l0.9-0.1l-0.1-0.9l-1.6,0.2l0.2,1.9l1.6-0.2
		l-0.1-0.9l-0.9,0.2l0,0l0.9-0.2l-0.1-0.9l-1.6,0.2l0.2,1.9l1.6-0.2l-0.1-0.9l-0.9,0.1c0.1,0.9-0.4,1.8-1.3,2.1
		c-0.2,0.1-0.3,0.1-0.5,0.1c-0.9,0.1-1.8-0.4-2.2-1.3c-0.1-0.2-0.1-0.3-0.1-0.5v0c0-0.1-0.2-1.4,0-3.3l0,0c0.1-2,0.5-4.6,1.6-7.4
		c0.7-1.9,1.8-3.8,3.3-5.7l0,0c2-2.4,4.9-4.7,8.7-6.3l0,0c0.2-0.1,0.4-0.2,0.6-0.2c1.7-0.7,3.4-1,5-1.1c1.6-0.1,3.2,0,4.6,0.3l0,0
		c2.9,0.6,5.5,1.8,7.9,3l0,0c1.6,0.8,3.1,1.5,4.5,2.1l0,0c1.9,0.8,3.8,1.3,5.6,1.2l0,0c1.1,0,2.1-0.2,3.3-0.7l0,0
		c0.1-0.1,0.3-0.1,0.4-0.2c2.1-0.8,3.6-1.9,4.9-3l0,0c1.2-1.1,2.2-2.4,2.8-3.6l0,0c1.4-2.5,1.8-5.1,1.8-6.9v0c0-1.2,0-2-0.1-2.2l0,0
		l0,0L752.1,39.3l0.1,0.9l1.8-0.3l-0.3-1.9l-1.8,0.3L752.1,39.3l0.9-0.2l0,0L752.1,39.3l0.1,0.9l1.8-0.3l-0.3-1.9l-1.9,0.3l-0.1,0
		L752.1,39.3z"/>
</g>
<path fill="#FFFFFF" d="M592.1,140.7L540.3,99c-1.1-0.9-2.7-0.7-3.6,0.4c-0.9,1.1-0.7,2.8,0.4,3.6l51.9,41.7
	c1.1,0.9,2.7,0.7,3.6-0.4C593.4,143.2,593.3,141.6,592.1,140.7"/>
<path fill="#FFFFFF" d="M592.7,140.1l-51.9-41.7c-0.6-0.5-1.4-0.7-2.1-0.7c-1,0-2,0.4-2.7,1.3c-0.5,0.6-0.7,1.4-0.7,2.1
	c0,1,0.4,2,1.3,2.7l51.9,41.7c0.6,0.5,1.4,0.8,2.1,0.7c1,0,2-0.4,2.7-1.3c0.5-0.6,0.8-1.4,0.8-2.1
	C593.9,141.7,593.5,140.7,592.7,140.1l-1,1.3c0.4,0.4,0.7,0.9,0.7,1.4c0,0.4-0.1,0.8-0.4,1.1c-0.4,0.4-0.9,0.7-1.4,0.7
	c-0.4,0-0.8-0.1-1.1-0.4l-51.9-41.7c-0.4-0.4-0.7-0.9-0.7-1.4c0-0.4,0.1-0.8,0.4-1.1c0.4-0.4,0.9-0.7,1.4-0.7c0.4,0,0.8,0.1,1.1,0.4
	l51.9,41.7L592.7,140.1z"/>
<ellipse fill="#FFFFFF" cx="542.8" cy="140" rx="4" ry="4.2"/>
<path fill="#FFFFFF" d="M538.8,140h0.8c0-0.9,0.4-1.8,1-2.4c0.6-0.6,1.4-1,2.3-1c0.9,0,1.7,0.4,2.3,1c0.6,0.6,0.9,1.4,0.9,2.4
	c0,0.9-0.4,1.8-0.9,2.4c-0.6,0.6-1.4,1-2.3,1c-0.9,0-1.7-0.4-2.3-1c-0.6-0.6-1-1.4-1-2.4H538.8H538c0,1.4,0.5,2.6,1.4,3.5
	c0.9,0.9,2.1,1.5,3.4,1.5c1.3,0,2.6-0.6,3.4-1.5c0.9-0.9,1.4-2.1,1.4-3.5c0-1.4-0.5-2.6-1.4-3.5c-0.9-0.9-2.1-1.5-3.4-1.5
	c-1.3,0-2.6,0.6-3.4,1.5c-0.9,0.9-1.4,2.1-1.4,3.5H538.8z"/>
<ellipse fill="#FFFFFF" cx="586.8" cy="106.9" rx="4" ry="4.2"/>
<path fill="#FFFFFF" d="M582.8,106.9h0.8c0-0.9,0.4-1.8,0.9-2.4c0.6-0.6,1.4-1,2.3-1c0.9,0,1.7,0.4,2.3,1c0.6,0.6,0.9,1.4,0.9,2.4
	c0,0.9-0.4,1.8-0.9,2.4c-0.6,0.6-1.4,1-2.3,1c-0.9,0-1.7-0.4-2.3-1c-0.6-0.6-0.9-1.4-0.9-2.4H582.8H582c0,1.4,0.5,2.6,1.4,3.5
	c0.9,0.9,2.1,1.5,3.4,1.5c1.3,0,2.6-0.6,3.4-1.5c0.9-0.9,1.4-2.1,1.4-3.5c0-1.4-0.5-2.6-1.4-3.5c-0.9-0.9-2.1-1.5-3.4-1.5
	c-1.3,0-2.6,0.6-3.4,1.5c-0.9,0.9-1.4,2.1-1.4,3.5H582.8z"/>
<g>
	<path fill="#FFFFFF" d="M744.9,170.2l-87.4-68.1c-2-1.5-4.8-1.2-6.4,0.8c-1.5,2-1.2,4.8,0.8,6.4l87.4,68.1c2,1.5,4.8,1.2,6.4-0.8
		C747.2,174.6,746.9,171.8,744.9,170.2"/>
	<path fill="#FFFFFF" d="M746,168.8l-87.4-68.1c-2.8-2.2-6.8-1.7-8.9,1.1c-2.2,2.8-1.7,6.8,1.1,8.9l87.4,68.1c2.8,2.2,6.8,1.7,9-1.1
		C749.3,174.9,748.8,170.9,746,168.8l-2.2,2.9c1.2,0.9,1.4,2.6,0.5,3.8c-0.9,1.2-2.6,1.4-3.8,0.5L653,107.9
		c-1.2-0.9-1.4-2.6-0.5-3.8c0.9-1.2,2.6-1.4,3.8-0.5l87.4,68.1L746,168.8z"/>
	<path fill="#FFFFFF" d="M731.3,187.6L644,119.5c-2-1.5-4.8-1.2-6.4,0.8c-1.5,2-1.2,4.8,0.8,6.4l87.3,68.1c2,1.5,4.8,1.2,6.4-0.8
		C733.7,192,733.3,189.1,731.3,187.6"/>
	<path fill="#FFFFFF" d="M732.4,186.2l-87.4-68.1c-2.8-2.2-6.8-1.7-8.9,1.1c-2.2,2.8-1.7,6.8,1.1,8.9l87.4,68.1
		c2.8,2.2,6.8,1.7,9-1.1C735.7,192.3,735.2,188.3,732.4,186.2l-2.2,2.9c1.2,0.9,1.4,2.6,0.5,3.8c-0.9,1.2-2.6,1.4-3.8,0.5
		l-87.4-68.1c-1.2-0.9-1.4-2.6-0.5-3.8c0.9-1.2,2.6-1.4,3.8-0.5l87.4,68.1L732.4,186.2z"/>
</g>
<g>
	<path fill="#FFFFFF" d="M473.8,67l53.6-23.7c1.2-0.5,1.8-2,1.2-3.2c-0.5-1.2-2-1.8-3.2-1.2l-53.6,23.7c-1.2,0.5-1.8,2-1.2,3.2
		C471.2,67,472.6,67.5,473.8,67"/>
	<path fill="#FFFFFF" d="M474.2,67.9l53.6-23.7c1.7-0.8,2.5-2.7,1.7-4.5c-0.8-1.7-2.7-2.5-4.5-1.7l-53.6,23.7
		c-1.7,0.8-2.5,2.7-1.7,4.5C470.5,67.9,472.5,68.6,474.2,67.9l-0.8-1.8c-0.7,0.3-1.6,0-1.9-0.7c-0.3-0.7,0-1.6,0.7-1.9l53.6-23.7
		c0.7-0.3,1.6,0,1.9,0.7c0.3,0.7,0,1.6-0.7,1.9l-53.6,23.7L474.2,67.9z"/>
	<path fill="#FFFFFF" d="M469.1,56.3l53.6-23.7c1.2-0.5,1.8-2,1.2-3.2c-0.5-1.2-2-1.8-3.2-1.2l-53.6,23.7c-1.2,0.5-1.8,2-1.2,3.2
		C466.5,56.3,467.9,56.8,469.1,56.3"/>
	<path fill="#FFFFFF" d="M469.5,57.2l53.6-23.7c1.7-0.8,2.5-2.7,1.7-4.5c-0.8-1.7-2.7-2.5-4.5-1.7L466.8,51
		c-1.7,0.8-2.5,2.7-1.7,4.5C465.8,57.2,467.8,58,469.5,57.2l-0.8-1.8c-0.7,0.3-1.6,0-1.9-0.7c-0.3-0.7,0-1.6,0.7-1.9L521.2,29
		c0.7-0.3,1.6,0,1.9,0.7c0.3,0.7,0,1.6-0.7,1.9l-53.6,23.7L469.5,57.2z"/>
</g>
<g>
	<path fill="#FFFFFF" d="M591.4,8.7c0-2.7,2.1-4.9,4.7-4.9c2.6,0,4.7,2.2,4.7,4.9c0,2.7-2.1,4.9-4.7,4.9
		C593.5,13.6,591.4,11.4,591.4,8.7z"/>
	<path fill="#FFFFFF" d="M591.4,8.7h0.9c0-1.1,0.4-2.1,1.1-2.8c0.7-0.7,1.6-1.1,2.6-1.1c1,0,2,0.4,2.6,1.1c0.7,0.7,1.1,1.7,1.1,2.8
		c0,1.1-0.4,2.1-1.1,2.8c-0.7,0.7-1.6,1.1-2.6,1.1c-1,0-2-0.4-2.6-1.1c-0.7-0.7-1.1-1.7-1.1-2.8H591.4h-1c0,1.6,0.6,3.1,1.6,4.1
		c1,1.1,2.4,1.7,4,1.7c1.6,0,3-0.7,4-1.7c1-1.1,1.6-2.5,1.6-4.1c0-1.6-0.6-3.1-1.6-4.1c-1-1.1-2.4-1.7-4-1.7c-1.6,0-3,0.7-4,1.7
		c-1,1.1-1.6,2.5-1.6,4.1H591.4z"/>
	<path fill="#FFFFFF" d="M639.4,5.9c0,13.9-5.6,26.5-14.7,35.6c-9.1,9.1-21.7,14.7-35.6,14.7c-1.6,0-2.9,1.3-2.9,2.9
		c0,1.6,1.3,2.9,2.9,2.9c15.5,0,29.5-6.3,39.7-16.4c10.1-10.1,16.4-24.2,16.4-39.7c0-1.6-1.3-2.9-2.9-2.9
		C640.7,3,639.4,4.3,639.4,5.9z"/>
	<path fill="#FFFFFF" d="M639.4,5.9h-0.6c0,13.7-5.6,26.1-14.6,35.1c-9,9-21.4,14.6-35.1,14.6c-1.9,0-3.5,1.6-3.5,3.5
		c0,1.9,1.6,3.5,3.5,3.5c15.7,0,29.9-6.4,40.1-16.6c10.3-10.3,16.6-24.5,16.6-40.1h-0.6l0.6,0v0h-0.6l0.6,0c0,0,0-0.1,0-0.1
		l-0.6,0.1h0.6c0-1.9-1.6-3.5-3.5-3.5c-1.9,0-3.5,1.6-3.5,3.5H639.4h0.6c0-0.6,0.2-1.2,0.7-1.6c0.4-0.4,1-0.7,1.6-0.7
		c0.6,0,1.2,0.3,1.6,0.7c0.4,0.4,0.7,1,0.7,1.6v0.1l0,0.1l0.6-0.1h-0.6l0,0.1l0.6-0.1h-0.6h0.6l-0.6,0v0h0.6l-0.6,0v0
		c0,15.3-6.2,29.2-16.2,39.2c-10,10-23.9,16.2-39.2,16.2c-0.6,0-1.2-0.3-1.6-0.7c-0.4-0.4-0.7-1-0.7-1.6c0-0.6,0.3-1.2,0.7-1.6
		c0.4-0.4,1-0.7,1.6-0.7c14.1,0,26.8-5.7,36-14.9c9.2-9.2,14.9-22,14.9-36H639.4z"/>
	<path fill="#FFFFFF" d="M628.7,4.8c0,11.5-4.6,21.8-12.2,29.4c-7.5,7.5-17.9,12.2-29.4,12.2c-1.3,0-2.4,1.1-2.4,2.4
		c0,1.3,1.1,2.4,2.4,2.4c12.8,0,24.3-5.2,32.7-13.6c8.4-8.4,13.6-19.9,13.6-32.7c0-1.3-1.1-2.4-2.4-2.4
		C629.7,2.4,628.7,3.5,628.7,4.8z"/>
	<path fill="#FFFFFF" d="M628.7,4.8H628c0,11.3-4.6,21.5-12,28.9c-7.4,7.4-17.6,12-28.9,12c-1.7,0-3,1.3-3,3c0,1.7,1.4,3,3,3
		c12.9,0,24.7-5.3,33.2-13.7c8.5-8.5,13.7-20.2,13.7-33.2h-0.5l0.5,0v0h-0.5l0.5,0c0,0,0,0,0-0.1l-0.6,0.1h0.6c0-1.7-1.3-3-3-3
		c-1.7,0-3,1.3-3,3H628.7h0.6c0-1,0.8-1.7,1.7-1.7c1,0,1.7,0.8,1.7,1.7v0l0,0l0.6-0.1h-0.6l0,0.1l0.6-0.1h-0.6h0.5l-0.5,0v0h0.5
		l-0.5,0v0c0,12.6-5.1,24-13.4,32.3c-8.3,8.3-19.7,13.4-32.3,13.4c-1,0-1.7-0.8-1.7-1.7c0-1,0.8-1.7,1.7-1.7
		c11.6,0,22.2-4.7,29.8-12.3c7.6-7.6,12.3-18.2,12.3-29.8H628.7z"/>
</g>
<g>
	<path fill="#FFFFFF" d="M359.5,140.4c2.5-2.1,6.1-1.8,8.1,0.6c2,2.4,1.6,6-0.9,8.1c-2.5,2.1-6.1,1.8-8.1-0.6
		C356.7,146.1,357.1,142.5,359.5,140.4z"/>
	<path fill="#FFFFFF" d="M359.5,140.4l0.7,0.9c1-0.8,2.2-1.2,3.3-1.1c1.2,0.1,2.2,0.6,3,1.5l0.1,0.1c0.8,0.9,1.1,2.1,1,3.2
		c-0.1,1.1-0.7,2.3-1.6,3.1l-0.1,0.1l0,0c-1,0.8-2.2,1.2-3.3,1.1c-1.2-0.1-2.2-0.6-3-1.5l-0.1-0.1c-0.8-0.9-1.1-2.1-1-3.2
		c0.1-1.1,0.6-2.3,1.6-3.1l0.1-0.1l0,0L359.5,140.4l-0.7-0.9c-0.1,0-0.1,0.1-0.2,0.2c-1.4,1.2-2.2,2.9-2.4,4.6
		c-0.2,1.7,0.3,3.5,1.5,4.9c0.1,0.1,0.1,0.1,0.1,0.2c1.2,1.4,2.9,2.1,4.6,2.2c1.7,0.1,3.5-0.4,4.9-1.6l0,0c0.1-0.1,0.1-0.1,0.2-0.2
		c1.4-1.2,2.2-2.9,2.4-4.6c0.2-1.7-0.3-3.5-1.5-4.9c0-0.1-0.1-0.1-0.1-0.2c-1.2-1.4-2.9-2.1-4.6-2.2c-1.7-0.1-3.5,0.4-4.9,1.6l0,0
		L359.5,140.4z"/>
	<path fill="#FFFFFF" d="M399.7,225.1l-7.9-93c-0.2-2-1.9-3.5-3.9-3.3c-2,0.2-3.5,1.9-3.3,3.9l7.9,93c0.2,2,1.9,3.5,3.9,3.3
		C398.3,228.9,399.8,227.1,399.7,225.1"/>
	<path fill="#FFFFFF" d="M344.6,222l-23.9-71.3c-0.5-1.5-2.1-2.3-3.6-1.8c-1.5,0.5-2.3,2.1-1.8,3.6l23.9,71.3
		c0.5,1.5,2.1,2.3,3.6,1.8C344.3,225.1,345.1,223.5,344.6,222"/>
	<path fill="#FFFFFF" d="M345.3,221.8l-23.9-71.3c-0.2-0.5-0.4-0.9-0.7-1.2c-0.9-1-2.4-1.5-3.8-1c-0.5,0.2-0.9,0.4-1.2,0.7
		c-1.1,0.9-1.5,2.4-1,3.8l23.9,71.3c0.2,0.5,0.4,0.9,0.7,1.2c0.9,1,2.4,1.5,3.8,1c0.5-0.2,0.9-0.4,1.2-0.7
		C345.3,224.7,345.8,223.2,345.3,221.8l-1.4,0.5c0.3,0.8,0,1.7-0.6,2.2c-0.2,0.2-0.4,0.3-0.7,0.4c-0.8,0.3-1.7,0-2.2-0.6
		c-0.2-0.2-0.3-0.4-0.4-0.7L316,152.2c-0.3-0.8,0-1.7,0.6-2.2c0.2-0.2,0.4-0.3,0.7-0.4c0.8-0.3,1.7,0,2.2,0.6
		c0.2,0.2,0.3,0.5,0.4,0.7l23.9,71.3L345.3,221.8L345.3,221.8z"/>
	<path fill="#FFFFFF" d="M354.5,213.2l-23.9-71.3c-0.5-1.5-2.1-2.3-3.6-1.8c-1.5,0.5-2.3,2.1-1.8,3.6l23.9,71.3
		c0.5,1.5,2.1,2.3,3.6,1.8C354.2,216.3,355,214.7,354.5,213.2"/>
	<path fill="#FFFFFF" d="M355.2,213l-23.9-71.3c-0.2-0.5-0.4-0.9-0.7-1.2c-0.9-1-2.4-1.5-3.8-1c-0.5,0.2-0.9,0.4-1.2,0.7
		c-1.1,0.9-1.5,2.4-1,3.8l23.9,71.3c0.2,0.5,0.4,0.9,0.7,1.2c0.9,1,2.4,1.5,3.8,1c0.5-0.2,0.9-0.4,1.2-0.7
		C355.2,215.9,355.7,214.4,355.2,213l-1.4,0.5c0.3,0.8,0,1.7-0.6,2.2c-0.2,0.2-0.4,0.3-0.7,0.4c-0.8,0.3-1.7,0-2.2-0.6
		c-0.2-0.2-0.3-0.4-0.4-0.7l-23.9-71.3c-0.3-0.8,0-1.7,0.6-2.2c0.2-0.2,0.4-0.3,0.7-0.4c0.8-0.3,1.7,0,2.2,0.6
		c0.2,0.2,0.3,0.4,0.4,0.7l23.9,71.3L355.2,213L355.2,213z"/>
</g>
<g>
	<path fill="#FFFFFF" d="M465.5,196l34.8-67.9c0.3-0.6,0.4-1.3,0.2-1.9c-0.2-0.6-0.7-1.2-1.3-1.5l-38.7-19.8
		c-1.2-0.6-2.8-0.1-3.4,1.1c-0.6,1.2-0.1,2.8,1.1,3.4l36.4,18.7l-33.7,65.7c-0.6,1.2-0.1,2.8,1.1,3.4
		C463.3,197.7,464.8,197.2,465.5,196z"/>
	<path fill="#FFFFFF" d="M465.5,196l0.7,0.4l34.8-67.9c0.4-0.8,0.5-1.7,0.2-2.5c-0.3-0.8-0.9-1.5-1.7-1.9l-38.7-19.8
		c-1.6-0.8-3.6-0.2-4.5,1.4c-0.8,1.6-0.2,3.6,1.4,4.5l35.7,18.3l-33.3,65c-0.8,1.6-0.2,3.6,1.4,4.5c1.6,0.8,3.6,0.2,4.5-1.4
		L465.5,196l-0.7-0.4c-0.4,0.9-1.5,1.2-2.3,0.8c-0.9-0.4-1.2-1.5-0.8-2.3l34-66.4l-37.1-19c-0.4-0.2-0.7-0.6-0.9-1
		c-0.1-0.4-0.1-0.9,0.1-1.3c0.2-0.4,0.6-0.7,1-0.9c0.4-0.1,0.9-0.1,1.3,0.1l38.7,19.8c0.4,0.2,0.7,0.6,0.9,1
		c0.1,0.4,0.1,0.9-0.1,1.3l-34.8,67.9L465.5,196z"/>
	<path fill="#FFFFFF" d="M454.8,190.2l28.3-55.3c0.5-1,0.1-2.2-0.9-2.7c-1-0.5-2.2-0.1-2.7,0.9l-28.3,55.3c-0.5,1-0.1,2.2,0.9,2.7
		C453.1,191.6,454.3,191.2,454.8,190.2"/>
	<path fill="#FFFFFF" d="M455.5,190.6l28.3-55.2c0.7-1.4,0.2-3-1.2-3.7c-1.4-0.7-3-0.2-3.7,1.2l-28.3,55.3c-0.7,1.4-0.2,3,1.2,3.7
		C453.1,192.5,454.8,191.9,455.5,190.6l-1.4-0.7c-0.3,0.6-1,0.8-1.6,0.5c-0.6-0.3-0.8-1-0.5-1.6l28.3-55.2c0.3-0.6,1-0.8,1.6-0.5
		c0.6,0.3,0.8,1,0.5,1.6l-28.3,55.3L455.5,190.6z"/>
</g>
<g>
	<path fill="#FFFFFF" d="M1174.1,122.3l1.6,0.6L1174.1,122.3L1174.1,122.3l1.6,0.6L1174.1,122.3L1174.1,122.3c0,0.1-0.3,0.8-0.9,1.7
		c-0.8,1.4-2.2,3.2-4.2,4.5c-1,0.7-2.2,1.2-3.6,1.6c-1.4,0.3-3,0.5-4.9,0.3c-0.1,0-0.3,0-0.4,0c-1.1-0.1-1.9-0.4-2.7-0.8
		c-1.4-0.7-2.5-1.8-3.7-3.2c-0.9-1.1-1.8-2.3-2.7-3.6c-1.4-2-3-4.1-5.2-6c-1.1-0.9-2.3-1.7-3.8-2.4c-1.4-0.6-3-1.1-4.8-1.3
		c-0.2,0-0.4,0-0.6-0.1c-3.9-0.4-7.3,0.2-10.2,1.3c-2.1,0.9-3.9,2-5.4,3.3c-2.2,1.9-3.7,3.9-4.7,5.5c-1,1.6-1.4,2.7-1.5,2.9
		c-0.6,1.4,0.1,3,1.6,3.6c1.4,0.5,3-0.1,3.6-1.6l-1.4-0.5l1.4,0.6l0,0l-1.4-0.5l1.4,0.6c0,0,0,0,0.1-0.1c0.3-0.6,1.6-3.4,4.2-5.7
		c1.3-1.2,2.9-2.2,4.8-2.9c1.9-0.7,4.2-1.1,7.1-0.8c0.2,0,0.3,0,0.5,0.1c1.3,0.2,2.3,0.5,3.3,0.9c1.6,0.8,3,1.9,4.2,3.3
		c0.9,1.1,1.8,2.3,2.8,3.6c1.4,1.9,2.8,4,4.8,5.8c1,0.9,2.1,1.7,3.4,2.4c1.3,0.6,2.8,1.1,4.4,1.3c0.2,0,0.4,0,0.5,0.1
		c3.5,0.4,6.6-0.1,9.2-1.2c1.9-0.8,3.5-1.8,4.8-2.9c2-1.7,3.3-3.5,4.1-5c0.8-1.4,1.2-2.5,1.3-2.6c0.5-1.4-0.2-3-1.7-3.5
		C1176.2,120.2,1174.6,120.9,1174.1,122.3L1174.1,122.3z"/>
	<path fill="#FFFFFF" d="M1174.1,122.3l-0.3,0.8l1.6,0.6l0.6-1.6l-2.4-0.9l-0.5,1.7l2.4,0.8l0.6-1.6l-2.4-0.9l-0.3,0.9L1174.1,122.3
		l-0.8-0.3c0,0.1-0.3,0.7-0.8,1.6l0,0c-0.7,1.3-2.1,3-3.9,4.2l0,0c-0.9,0.6-2,1.1-3.3,1.5v0c-1.3,0.3-2.8,0.5-4.6,0.3
		c-0.1,0-0.3,0-0.4,0l0,0c-1-0.1-1.7-0.4-2.4-0.7l0,0c-1.2-0.6-2.3-1.6-3.4-3v0c-0.8-1-1.7-2.3-2.7-3.6l0,0l0,0
		c-1.4-2-3-4.2-5.3-6.1l0,0c-1.2-1-2.5-1.8-4-2.5c-1.5-0.7-3.2-1.2-5.1-1.4c-0.2,0-0.4,0-0.6-0.1l0,0c-4-0.4-7.6,0.2-10.6,1.4l0,0
		c-2.2,0.9-4.1,2.1-5.6,3.4c-2.3,1.9-3.9,4-4.9,5.7l0,0c-1,1.6-1.5,2.8-1.6,3l0,0.1l0-0.1c-0.1,0.3-0.2,0.6-0.2,0.9
		c-0.2,1.6,0.7,3.1,2.3,3.7c0.3,0.1,0.6,0.2,0.9,0.2c1.6,0.2,3.1-0.7,3.7-2.3l0.3-0.8l-2.2-0.9l-0.6,1.6l2.3,0.9l0.5-1.7l-2.2-0.8
		l-0.6,1.6l2.2,0.9l0.3-0.8l-0.1,0l0.1,0v0l-0.1,0l0.1,0c0,0,0,0,0-0.1l0,0l0,0c0.1-0.3,0.5-1.1,1.1-2.1c0.7-1,1.6-2.2,2.8-3.3l0,0
		l0,0c1.2-1.1,2.7-2.1,4.5-2.7l0.1,0l-0.1,0c1.8-0.7,4-1,6.7-0.7c0.1,0,0.3,0,0.4,0.1l0,0c1.2,0.2,2.2,0.4,3,0.8l0,0
		c1.5,0.7,2.7,1.7,3.9,3.1c0.9,1,1.8,2.2,2.7,3.5h0c1.4,1.9,2.8,4.1,4.9,6l0.1,0.1l-0.1-0.1c1,0.9,2.2,1.8,3.6,2.5l0,0
		c1.4,0.7,3,1.2,4.7,1.4l0,0c0.2,0,0.4,0,0.6,0.1l0,0c3.7,0.4,6.9-0.2,9.5-1.2v0c2-0.8,3.7-1.9,5-3.1l0,0c2-1.8,3.4-3.7,4.3-5.2
		l0.1-0.1l-0.1,0.1c0.4-0.7,0.8-1.4,1-1.9c0.2-0.5,0.3-0.8,0.4-0.9l0,0c0.1-0.3,0.2-0.6,0.2-0.8c0.2-1.6-0.8-3.2-2.4-3.8
		c-0.3-0.1-0.6-0.2-0.8-0.2c-1.6-0.2-3.2,0.8-3.8,2.4l-0.4,1l1.1,0.1L1174.1,122.3l-0.3,0.8L1174.1,122.3l0.1-0.9l0,0L1174.1,122.3
		l0.8,0.3c0.3-0.8,1.1-1.3,2-1.2c0.1,0,0.3,0,0.4,0.1c0.8,0.3,1.3,1.1,1.2,2c0,0.1,0,0.3-0.1,0.4v0c0,0.1-0.1,0.3-0.3,0.7
		c-0.2,0.4-0.5,1-0.9,1.7l0,0c-0.8,1.4-2.1,3.1-3.9,4.7l0,0c-1.2,1.1-2.8,2.1-4.6,2.8l0,0c-2.4,1-5.3,1.5-8.7,1.1l0,0
		c-0.2,0-0.3,0-0.5-0.1l0,0c-1.5-0.2-2.9-0.6-4.1-1.2l0,0c-1.2-0.6-2.3-1.4-3.2-2.2v0c-1.9-1.7-3.3-3.8-4.7-5.7l0,0
		c-0.9-1.3-1.8-2.5-2.8-3.7c-1.3-1.5-2.7-2.7-4.5-3.5l0,0c-1-0.5-2.2-0.8-3.5-1l0,0c-0.2,0-0.3,0-0.5-0.1c-3-0.3-5.4,0.1-7.5,0.8
		l0,0c-2.1,0.7-3.7,1.9-5.1,3.1v0c-1.4,1.2-2.4,2.5-3.1,3.6c-0.7,1.1-1.1,2-1.3,2.3l0.8,0.3l-0.8-0.4c0,0.1-0.1,0.1-0.1,0.1l0.8,0.3
		l0.3-0.8l-1.4-0.6l-0.6,1.6l1.4,0.5l0.3-0.8l-0.8-0.3l0,0l0.8,0.3l0.3-0.8l-1.4-0.6l-0.6,1.6l1.4,0.5l0.3-0.8l-0.8-0.3
		c-0.3,0.8-1.1,1.3-1.9,1.2c-0.2,0-0.3-0.1-0.5-0.1c-0.8-0.3-1.3-1.1-1.2-1.9c0-0.2,0.1-0.3,0.1-0.5v0c0-0.1,0.5-1.2,1.4-2.7l0,0
		c0.9-1.5,2.4-3.5,4.5-5.3c1.4-1.2,3.1-2.3,5.2-3.1l0,0c2.7-1.1,6-1.6,9.7-1.3l0,0c0.2,0,0.4,0,0.6,0.1c1.7,0.2,3.2,0.7,4.6,1.3
		c1.4,0.6,2.5,1.4,3.6,2.3l0,0c2.1,1.7,3.6,3.8,5,5.8l0,0c0.9,1.3,1.8,2.6,2.7,3.7l0,0c1.2,1.5,2.5,2.7,4,3.4l0,0
		c0.9,0.4,1.8,0.7,3,0.9h0c0.1,0,0.3,0,0.4,0.1c2,0.2,3.8,0.1,5.2-0.3l0,0c1.5-0.4,2.8-1,3.9-1.7h0c2.2-1.4,3.6-3.4,4.5-4.8l0,0
		c0.6-0.9,0.9-1.7,0.9-1.8l0,0l0,0L1174.1,122.3l-0.3,0.8l1.6,0.6l0.6-1.6l-1.6-0.6L1174.1,122.3l0.8,0.3l0,0L1174.1,122.3l-0.3,0.8
		l1.6,0.6l0.6-1.6l-1.7-0.6l-0.1,0L1174.1,122.3z"/>
</g>
<g>
	<path fill="#FFFFFF" d="M1036.6,158.6l-31.2-52.2c-0.7-1.1-2.1-1.5-3.3-0.8c-1.1,0.7-1.5,2.1-0.8,3.3l31.2,52.2
		c0.7,1.1,2.1,1.5,3.3,0.8C1036.9,161.2,1037.2,159.7,1036.6,158.6"/>
	<path fill="#FFFFFF" d="M1037.2,158.2L1006,106c-0.4-0.6-0.9-1.1-1.6-1.3c-0.9-0.3-1.8-0.3-2.7,0.2c-0.6,0.4-1.1,1-1.3,1.6
		c-0.3,0.9-0.3,1.8,0.2,2.7l31.2,52.2c0.4,0.6,0.9,1.1,1.6,1.3c0.8,0.3,1.8,0.3,2.7-0.2c0.6-0.4,1.1-0.9,1.3-1.6
		C1037.8,160,1037.7,159.1,1037.2,158.2l-1.3,0.8c0.3,0.4,0.3,1,0.1,1.4c-0.1,0.3-0.4,0.6-0.7,0.8c-0.4,0.3-1,0.3-1.4,0.1
		c-0.3-0.1-0.6-0.4-0.8-0.7l-31.2-52.2c-0.3-0.4-0.3-1-0.1-1.4c0.1-0.3,0.4-0.6,0.7-0.8c0.4-0.3,1-0.3,1.4-0.1
		c0.3,0.1,0.6,0.4,0.8,0.7l31.2,52.2L1037.2,158.2z"/>
	<path fill="#FFFFFF" d="M991.1,141c0.7-2,2.9-3,4.8-2.3c1.9,0.7,2.8,2.9,2.1,4.8c-0.7,2-2.9,3-4.8,2.3
		C991.3,145.2,990.3,143,991.1,141z"/>
	<path fill="#FFFFFF" d="M991.1,141l0.7,0.3c0.3-0.8,0.9-1.4,1.6-1.7c0.7-0.3,1.5-0.4,2.2-0.1c0.8,0.3,1.3,0.8,1.6,1.5
		c0.3,0.7,0.4,1.5,0.1,2.3c-0.3,0.8-0.9,1.4-1.6,1.7c-0.7,0.3-1.5,0.4-2.2,0.1c-0.8-0.3-1.3-0.8-1.6-1.6c-0.3-0.7-0.4-1.5-0.1-2.3
		L991.1,141l-0.7-0.3c-0.4,1.2-0.4,2.4,0.1,3.5c0.5,1,1.3,1.9,2.5,2.3c1.1,0.4,2.4,0.3,3.4-0.2c1-0.5,1.9-1.4,2.3-2.6
		c0.4-1.2,0.4-2.4-0.1-3.5c-0.5-1-1.3-1.9-2.5-2.3c-1.1-0.4-2.4-0.3-3.4,0.2c-1,0.5-1.9,1.4-2.3,2.6L991.1,141z"/>
	
		<ellipse transform="matrix(-0.9372 -0.3488 0.3488 -0.9372 1975.3667 611.6149)" fill="#FFFFFF" cx="1042.7" cy="128" rx="3.7" ry="3.8"/>
	<path fill="#FFFFFF" d="M1039.3,126.7l0.7,0.3c0.3-0.8,0.9-1.4,1.6-1.7c0.7-0.3,1.5-0.4,2.2-0.1c0.8,0.3,1.3,0.8,1.6,1.6
		c0.3,0.7,0.4,1.5,0.1,2.3c-0.3,0.8-0.9,1.4-1.6,1.7c-0.7,0.3-1.5,0.4-2.2,0.1c-0.7-0.3-1.3-0.8-1.6-1.5c-0.3-0.7-0.4-1.5-0.1-2.3
		L1039.3,126.7l-0.7-0.3c-0.4,1.2-0.4,2.4,0.1,3.5c0.5,1.1,1.3,1.9,2.5,2.3c1.1,0.4,2.4,0.3,3.4-0.2c1-0.5,1.9-1.4,2.3-2.6
		c0.4-1.2,0.4-2.4-0.1-3.5c-0.5-1-1.3-1.9-2.5-2.4c-1.2-0.4-2.4-0.3-3.4,0.2c-1,0.5-1.9,1.4-2.3,2.6L1039.3,126.7z"/>
</g>
<g>
	<path fill="#FFFFFF" d="M1157.8,239.3l-61.3-80.6c-1.4-1.8-4-2.2-5.8-0.8c-1.8,1.4-2.2,4-0.8,5.8l61.3,80.6c1.4,1.8,4,2.2,5.8,0.8
		C1158.9,243.8,1159.2,241.2,1157.8,239.3"/>
	<path fill="#FFFFFF" d="M1159.2,238.3l-61.3-80.6c-2-2.6-5.6-3.1-8.2-1.1c-2.6,1.9-3.1,5.6-1.1,8.2l61.3,80.6
		c2,2.6,5.6,3.1,8.2,1.1C1160.6,244.5,1161.1,240.9,1159.2,238.3l-2.7,2c0.8,1.1,0.6,2.7-0.5,3.5c-1.1,0.8-2.6,0.6-3.5-0.5
		l-61.3-80.6c-0.8-1.1-0.6-2.6,0.5-3.5c1.1-0.8,2.7-0.6,3.5,0.5l61.3,80.6L1159.2,238.3z"/>
	<path fill="#FFFFFF" d="M1141.8,251.5l-61.3-80.6c-1.4-1.8-4-2.2-5.8-0.8c-1.8,1.4-2.2,4-0.8,5.8l61.3,80.6c1.4,1.8,4,2.2,5.8,0.8
		C1142.8,256,1143.2,253.4,1141.8,251.5"/>
	<path fill="#FFFFFF" d="M1143.1,250.5l-61.3-80.6c-1.9-2.6-5.6-3.1-8.2-1.1c-2.6,1.9-3.1,5.6-1.1,8.2l61.3,80.6
		c2,2.6,5.6,3.1,8.2,1.1C1144.6,256.7,1145.1,253.1,1143.1,250.5l-2.7,2c0.8,1.1,0.6,2.6-0.5,3.5c-1.1,0.8-2.6,0.6-3.5-0.5
		l-61.3-80.6c-0.8-1.1-0.6-2.6,0.5-3.5c1.1-0.8,2.6-0.6,3.5,0.5l61.3,80.6L1143.1,250.5z"/>
</g>
<g>
	<path fill="#FFFFFF" d="M965.6,58.8l53.5-3.2c1.2-0.1,2.1-1.1,2.1-2.3c-0.1-1.2-1.1-2.1-2.3-2.1l-53.5,3.2
		c-1.2,0.1-2.1,1.1-2.1,2.3C963.3,57.9,964.3,58.8,965.6,58.8"/>
	<path fill="#FFFFFF" d="M965.6,59.6l53.5-3.2c1.7-0.1,3-1.6,2.9-3.3c-0.1-1.7-1.6-3-3.3-2.9l-53.5,3.2c-1.7,0.1-3,1.6-2.9,3.3
		C962.4,58.4,963.9,59.7,965.6,59.6l-0.1-1.8c-0.7,0-1.3-0.5-1.4-1.2c0-0.7,0.5-1.3,1.2-1.4l53.5-3.2c0.7,0,1.3,0.5,1.4,1.2
		c0,0.7-0.5,1.4-1.2,1.4l-53.5,3.2L965.6,59.6z"/>
	<path fill="#FFFFFF" d="M964.9,48.1l53.5-3.2c1.2-0.1,2.1-1.1,2.1-2.3c-0.1-1.2-1.1-2.1-2.3-2.1l-53.5,3.2
		c-1.2,0.1-2.1,1.1-2.1,2.3C962.6,47.3,963.7,48.2,964.9,48.1"/>
	<path fill="#FFFFFF" d="M965,49l53.5-3.2c1.7-0.1,3-1.6,2.9-3.3c-0.1-1.7-1.6-3-3.3-2.9l-53.5,3.2c-1.7,0.1-3,1.6-2.9,3.3
		C961.8,47.8,963.3,49.1,965,49l-0.1-1.8c-0.7,0-1.3-0.5-1.4-1.2c0-0.7,0.5-1.3,1.2-1.4l53.5-3.2c0.7,0,1.4,0.5,1.4,1.2
		c0,0.7-0.5,1.3-1.2,1.4l-53.5,3.2L965,49z"/>
</g>
<g>
	<path fill="#FFFFFF" d="M1084.8,35.2c0.9-2.5,3.7-3.8,6.1-2.9c2.4,0.9,3.7,3.7,2.7,6.2c-0.9,2.5-3.7,3.8-6.1,2.9
		C1085.1,40.5,1083.9,37.7,1084.8,35.2z"/>
	<path fill="#FFFFFF" d="M1084.8,35.2l0.9,0.3c0.4-1,1.1-1.8,2-2.2c0.9-0.4,1.9-0.5,2.9-0.1c1,0.4,1.7,1.1,2.1,2
		c0.4,0.9,0.5,2,0.1,3c-0.4,1-1.1,1.8-2,2.2c-0.9,0.4-1.9,0.5-2.9,0.1c-1-0.4-1.7-1.1-2.1-2c-0.4-0.9-0.5-2-0.1-3L1084.8,35.2
		l-0.9-0.3c-0.6,1.5-0.5,3.1,0.1,4.4c0.6,1.3,1.7,2.5,3.2,3c1.5,0.6,3,0.4,4.4-0.2c1.3-0.6,2.4-1.8,3-3.3c0.6-1.5,0.5-3.1-0.1-4.4
		c-0.6-1.3-1.7-2.5-3.2-3c-1.5-0.5-3-0.4-4.4,0.2c-1.3,0.6-2.4,1.8-3,3.3L1084.8,35.2z"/>
	<path fill="#FFFFFF" d="M1131,49.3c-4.9,13.1-14.6,22.9-26.3,28.3c-11.8,5.4-25.5,6.3-38.6,1.4c-1.5-0.6-3.2,0.2-3.7,1.7
		c-0.6,1.5,0.2,3.2,1.7,3.7c14.6,5.4,30,4.4,43-1.6c13.1-6,23.9-17,29.3-31.5c0.6-1.5-0.2-3.2-1.7-3.7
		C1133.2,47,1131.5,47.8,1131,49.3z"/>
	<path fill="#FFFFFF" d="M1131,49.3l-0.6-0.2c-4.8,12.9-14.4,22.6-26,27.9c-11.6,5.3-25.2,6.2-38.1,1.4c-1.8-0.7-3.9,0.3-4.5,2.1
		c-0.7,1.8,0.2,3.9,2.1,4.5c14.7,5.5,30.3,4.5,43.5-1.6c13.2-6,24.2-17.2,29.6-31.9l-0.6-0.2l0.5,0.2l0,0l-0.6-0.2l0.5,0.2
		c0,0,0,0,0-0.1l-0.6-0.1l0.6,0.2c0.7-1.8-0.2-3.9-2.1-4.5c-1.8-0.7-3.9,0.3-4.5,2.1L1131,49.3l0.6,0.2c0.2-0.6,0.6-1,1.2-1.3
		c0.5-0.2,1.1-0.3,1.7-0.1c0.6,0.2,1,0.6,1.3,1.2c0.2,0.5,0.3,1.1,0.1,1.7l0,0.1l0,0.1l0.6,0.1l-0.6-0.2l0,0.1l0.6,0.1l-0.6-0.2
		l0.6,0.2l-0.5-0.2l0,0l0.6,0.2l-0.5-0.2l0,0c-5.4,14.4-16,25.3-29,31.2c-12.9,5.9-28.2,6.9-42.6,1.5c-0.6-0.2-1-0.6-1.3-1.2
		c-0.2-0.5-0.3-1.1-0.1-1.7c0.2-0.6,0.7-1,1.2-1.3c0.5-0.2,1.1-0.3,1.7-0.1c13.2,4.9,27.2,4,39.1-1.4c11.9-5.4,21.7-15.4,26.6-28.7
		L1131,49.3z"/>
	<path fill="#FFFFFF" d="M1121.2,44.5c-4,10.8-12,18.9-21.7,23.3c-9.7,4.4-21.1,5.2-31.8,1.2c-1.2-0.5-2.6,0.2-3.1,1.4
		c-0.5,1.2,0.2,2.6,1.4,3.1c12,4.5,24.7,3.6,35.5-1.3c10.8-4.9,19.7-14,24.2-26c0.5-1.2-0.2-2.6-1.4-3.1
		C1123,42.7,1121.7,43.3,1121.2,44.5z"/>
	<path fill="#FFFFFF" d="M1121.2,44.5l-0.6-0.2c-4,10.6-11.8,18.6-21.4,23c-9.5,4.4-20.7,5.1-31.4,1.1c-1.6-0.6-3.3,0.2-3.9,1.8
		c-0.6,1.6,0.2,3.3,1.8,3.9c12.2,4.5,25,3.7,36-1.3c10.9-5,20-14.2,24.5-26.4l-0.5-0.2l0.5,0.2l0,0l-0.5-0.2l0.5,0.2c0,0,0,0,0-0.1
		l-0.6-0.1l0.6,0.2c0.6-1.6-0.2-3.3-1.8-3.9c-1.6-0.6-3.3,0.2-3.9,1.8L1121.2,44.5l0.6,0.2c0.3-0.9,1.3-1.4,2.2-1
		c0.9,0.3,1.4,1.3,1,2.2l0,0l0,0l0.6,0.1l-0.6-0.2l0,0.1l0.6,0.1l-0.6-0.2l0.5,0.2l-0.5-0.2l0,0l0.5,0.2l-0.5-0.2l0,0
		c-4.4,11.8-13.2,20.8-23.8,25.6c-10.6,4.9-23.2,5.7-35,1.3c-0.9-0.3-1.4-1.3-1-2.2c0.3-0.9,1.3-1.4,2.2-1
		c10.9,4.1,22.5,3.3,32.3-1.2c9.8-4.5,18-12.8,22-23.7L1121.2,44.5z"/>
</g>
<g>
	<path fill="#FFFFFF" d="M837.4,85.6c2.8-1,5.8,0.4,6.7,3.1c0.9,2.7-0.6,5.7-3.3,6.6c-2.8,1-5.8-0.4-6.7-3.1
		C833.1,89.5,834.6,86.6,837.4,85.6z"/>
	<path fill="#FFFFFF" d="M837.4,85.6l0.3,1c1.1-0.4,2.3-0.3,3.2,0.1c1,0.4,1.7,1.2,2.1,2.2l0,0.1c0.4,1,0.3,2.1-0.2,3.1
		c-0.5,0.9-1.3,1.7-2.4,2.2l-0.1,0l0,0c-1.1,0.4-2.3,0.3-3.2-0.1c-1-0.4-1.7-1.2-2.1-2.2l0-0.1c-0.4-1-0.3-2.1,0.2-3.1
		c0.5-0.9,1.3-1.7,2.4-2.2l0.2-0.1l0,0L837.4,85.6l-0.4-1c-0.1,0-0.1,0-0.2,0.1c-1.6,0.6-2.8,1.8-3.5,3.2c-0.7,1.4-0.8,3.1-0.3,4.7
		c0,0.1,0,0.1,0.1,0.2c0.6,1.6,1.8,2.7,3.2,3.4c1.4,0.6,3.1,0.7,4.8,0.2l0,0c0.1,0,0.2-0.1,0.2-0.1c1.6-0.6,2.8-1.8,3.5-3.2
		c0.7-1.4,0.8-3.1,0.3-4.7c0-0.1,0-0.1-0.1-0.2c-0.6-1.6-1.8-2.7-3.2-3.4c-1.4-0.6-3.1-0.7-4.8-0.2l0,0L837.4,85.6z"/>
</g>
<g>
	<path fill="#FFFFFF" d="M897.3,30.7c2.2-0.8,4.7,0.3,5.4,2.5c0.8,2.2-0.4,4.5-2.7,5.3c-2.2,0.8-4.7-0.3-5.4-2.5
		C893.8,33.9,895,31.5,897.3,30.7z"/>
	<path fill="#FFFFFF" d="M897.3,30.7l0.3,0.8c0.9-0.3,1.8-0.3,2.6,0.1c0.8,0.3,1.4,1,1.7,1.8l0,0.1c0.3,0.8,0.2,1.7-0.2,2.5
		c-0.4,0.8-1,1.4-1.9,1.7l-0.1,0l0,0c-0.9,0.3-1.8,0.3-2.6-0.1c-0.8-0.3-1.4-1-1.7-1.8l0-0.1c-0.3-0.8-0.2-1.7,0.2-2.5
		c0.4-0.8,1-1.4,1.9-1.7l0.1,0l0,0L897.3,30.7l-0.3-0.8c-0.1,0-0.1,0-0.2,0.1c-1.3,0.5-2.3,1.4-2.8,2.6c-0.6,1.1-0.7,2.5-0.2,3.8
		c0,0.1,0,0.1,0.1,0.2c0.5,1.3,1.4,2.2,2.6,2.7c1.2,0.5,2.5,0.6,3.8,0.1l0,0c0.1,0,0.1,0,0.2-0.1c1.3-0.5,2.3-1.4,2.8-2.6
		c0.6-1.1,0.7-2.5,0.2-3.8c0-0.1,0-0.1-0.1-0.2c-0.5-1.3-1.5-2.2-2.6-2.7c-1.2-0.5-2.5-0.6-3.8-0.1l0,0L897.3,30.7z"/>
</g>
<g>
	<path fill="#FFFFFF" d="M1214.5,180.2c2.2-0.8,4.7,0.3,5.4,2.5c0.8,2.2-0.4,4.5-2.7,5.3c-2.2,0.8-4.7-0.3-5.4-2.5
		C1211.1,183.4,1212.3,181,1214.5,180.2z"/>
	<path fill="#FFFFFF" d="M1214.5,180.2l0.3,0.8c0.9-0.3,1.8-0.3,2.6,0.1c0.8,0.3,1.4,1,1.7,1.8l0,0.1c0.3,0.8,0.2,1.7-0.2,2.5
		c-0.4,0.8-1,1.4-1.9,1.7l-0.1,0l0,0c-0.9,0.3-1.8,0.3-2.6-0.1c-0.8-0.3-1.4-1-1.7-1.8l0-0.1c-0.3-0.8-0.2-1.7,0.2-2.5
		c0.4-0.8,1-1.4,1.9-1.7l0.1,0l0,0L1214.5,180.2l-0.3-0.8c-0.1,0-0.1,0-0.2,0.1c-1.3,0.5-2.3,1.4-2.8,2.6c-0.6,1.1-0.7,2.5-0.2,3.8
		c0,0.1,0,0.1,0.1,0.2c0.5,1.3,1.5,2.2,2.6,2.7c1.2,0.5,2.5,0.6,3.8,0.1l0,0c0.1,0,0.1,0,0.2-0.1c1.3-0.5,2.3-1.4,2.8-2.6
		c0.6-1.1,0.7-2.5,0.2-3.8c0-0.1,0-0.1-0.1-0.2c-0.5-1.3-1.5-2.2-2.6-2.7c-1.2-0.5-2.5-0.6-3.8-0.1l0,0L1214.5,180.2z"/>
</g>
<g>
	<path fill="#FFFFFF" d="M622.1,188.1c2.2-0.8,4.7,0.3,5.4,2.5c0.8,2.2-0.5,4.5-2.7,5.3c-2.2,0.8-4.7-0.3-5.4-2.5
		C618.7,191.3,619.9,188.9,622.1,188.1z"/>
	<path fill="#FFFFFF" d="M622.1,188.1l0.3,0.8c0.9-0.3,1.8-0.3,2.6,0.1c0.8,0.3,1.4,1,1.7,1.8l0,0.1c0.3,0.8,0.2,1.7-0.2,2.5
		c-0.4,0.8-1,1.4-1.9,1.7l-0.1,0l0,0c-0.9,0.3-1.8,0.3-2.6-0.1c-0.8-0.3-1.4-1-1.7-1.8l0-0.1c-0.3-0.8-0.2-1.7,0.2-2.5
		c0.4-0.8,1-1.4,1.9-1.7l0.1,0l0,0L622.1,188.1l-0.3-0.8c-0.1,0-0.1,0-0.2,0.1c-1.3,0.5-2.3,1.4-2.8,2.6c-0.6,1.1-0.7,2.5-0.2,3.8
		c0,0.1,0,0.1,0.1,0.2c0.5,1.3,1.5,2.2,2.6,2.7c1.2,0.5,2.5,0.6,3.8,0.1l0,0c0.1,0,0.1,0,0.2-0.1c1.3-0.5,2.3-1.4,2.8-2.6
		c0.6-1.1,0.7-2.5,0.2-3.8c0-0.1,0-0.1-0.1-0.2c-0.5-1.3-1.5-2.2-2.6-2.7c-1.2-0.5-2.5-0.6-3.8-0.1l0,0L622.1,188.1z"/>
</g>
<g>
	<path fill="#FFFFFF" d="M98.2-0.7c4.4-1.5,9.1,0.7,10.6,4.9c1.5,4.2-0.9,8.9-5.3,10.4c-4.4,1.5-9.1-0.7-10.6-4.9
		C91.4,5.5,93.8,0.9,98.2-0.7z"/>
	<path fill="#FFFFFF" d="M98.2-0.7l0.5,1.6c1.7-0.6,3.5-0.5,5.1,0.2c1.5,0.7,2.7,1.9,3.4,3.5l0.1,0.2c0.6,1.6,0.4,3.4-0.3,4.8
		c-0.7,1.5-2,2.7-3.7,3.4l-0.2,0.1l0,0c-1.7,0.6-3.5,0.5-5.1-0.2c-1.5-0.7-2.7-1.9-3.4-3.5l-0.1-0.2c-0.6-1.6-0.4-3.3,0.3-4.8
		c0.7-1.5,2-2.7,3.7-3.4l0.2-0.1l0,0L98.2-0.7l-0.6-1.5c-0.1,0-0.2,0.1-0.3,0.1c-2.5,1-4.4,2.8-5.5,5c-1.1,2.2-1.3,4.8-0.5,7.3
		c0,0.1,0.1,0.2,0.1,0.3c0.9,2.5,2.8,4.3,5.1,5.3c2.3,1,4.9,1.2,7.5,0.3l0,0c0.1,0,0.2-0.1,0.3-0.1c2.5-1,4.4-2.8,5.5-5
		c1.1-2.2,1.3-4.9,0.4-7.3c0-0.1-0.1-0.2-0.1-0.3c-0.9-2.5-2.8-4.3-5.1-5.3c-2.3-1-4.9-1.2-7.5-0.3l0,0L98.2-0.7z"/>
</g>
<g>
	<path fill="#FFFFFF" d="M916.7,207.3c6.2-2.2,12.9,0.9,15,6.9c2.1,6-1.2,12.6-7.5,14.8c-6.2,2.2-12.9-0.9-15-6.9
		C907.2,216.1,910.5,209.5,916.7,207.3z"/>
	<path fill="#FFFFFF" d="M916.7,207.3l0.8,2.2c2.5-0.9,5-0.7,7.2,0.3c2.2,1,3.9,2.7,4.8,5l0.1,0.3c0.8,2.3,0.6,4.8-0.4,6.9
		c-1,2.1-2.9,3.9-5.3,4.8l-0.3,0.1l0,0c-2.5,0.9-5,0.7-7.2-0.3c-2.2-1-3.9-2.7-4.8-5l-0.1-0.3c-0.8-2.3-0.6-4.8,0.4-6.9
		c1-2.1,2.9-3.9,5.3-4.8l0.3-0.1l0,0L916.7,207.3l-0.8-2.2c-0.1,0.1-0.3,0.1-0.4,0.2c-3.5,1.4-6.3,4-7.8,7.1
		c-1.5,3.2-1.9,6.9-0.6,10.4c0.1,0.2,0.1,0.3,0.2,0.4c1.3,3.5,4,6.1,7.2,7.5c3.2,1.4,7,1.7,10.6,0.4l0,0c0.2-0.1,0.3-0.1,0.5-0.2
		c3.5-1.4,6.3-4,7.8-7.1c1.5-3.1,1.9-6.9,0.6-10.4c-0.1-0.1-0.1-0.3-0.1-0.4c-1.3-3.5-4-6.1-7.2-7.5c-3.2-1.4-7-1.7-10.6-0.4l0,0
		L916.7,207.3z"/>
</g>
<path fill="#FFFFFF" d="M844.7,171l22.9-82.2c0.5-1.8-0.5-3.6-2.3-4.1c-1.8-0.5-3.6,0.5-4.1,2.3l-22.9,82.2
	c-0.5,1.8,0.5,3.6,2.3,4.1C842.4,173.8,844.2,172.8,844.7,171"/>
<path fill="#FFFFFF" d="M798.5,150.8l2.3-68.7c0-1.4-1.1-2.6-2.5-2.7c-1.4,0-2.6,1.1-2.7,2.5l-2.3,68.7c0,1.4,1.1,2.6,2.5,2.7
	C797.3,153.3,798.5,152.2,798.5,150.8"/>
<path fill="#FFFFFF" d="M799.2,150.8l2.3-68.7c0-0.5-0.1-0.9-0.2-1.3c-0.5-1.2-1.6-2.1-3-2.1c-0.5,0-0.9,0.1-1.3,0.2
	c-1.2,0.5-2.1,1.6-2.1,3l-2.3,68.7c0,0.5,0.1,0.9,0.2,1.3c0.5,1.2,1.6,2.1,3,2.1c0.5,0,0.9-0.1,1.3-0.2
	C798.3,153.3,799.2,152.1,799.2,150.8l-1.4,0c0,0.8-0.5,1.4-1.2,1.7c-0.2,0.1-0.5,0.1-0.7,0.1c-0.8,0-1.4-0.5-1.7-1.2
	c-0.1-0.2-0.1-0.5-0.1-0.8l2.3-68.7c0-0.8,0.5-1.4,1.2-1.7c0.2-0.1,0.5-0.1,0.7-0.1c0.8,0,1.4,0.5,1.7,1.2c0.1,0.2,0.1,0.5,0.1,0.8
	l-2.3,68.7L799.2,150.8L799.2,150.8z"/>
<path fill="#FFFFFF" d="M809.8,146.4l2.3-68.7c0-1.4-1.1-2.6-2.5-2.7c-1.4,0-2.6,1.1-2.7,2.5l-2.3,68.7c0,1.4,1.1,2.6,2.5,2.7
	C808.6,149,809.8,147.8,809.8,146.4"/>
<path fill="#FFFFFF" d="M810.5,146.4l2.3-68.7c0-0.5-0.1-0.9-0.2-1.3c-0.5-1.2-1.6-2.1-3-2.1c-0.5,0-0.9,0.1-1.3,0.2
	c-1.2,0.5-2.1,1.6-2.1,3l-2.3,68.7c0,0.5,0.1,0.9,0.2,1.3c0.5,1.2,1.6,2.1,3,2.1c0.5,0,0.9-0.1,1.3-0.2
	C809.6,148.9,810.5,147.8,810.5,146.4l-1.4,0c0,0.8-0.5,1.4-1.2,1.7c-0.2,0.1-0.5,0.1-0.7,0.1c-0.8,0-1.4-0.5-1.7-1.2
	c-0.1-0.2-0.1-0.5-0.1-0.8l2.3-68.7c0-0.8,0.5-1.4,1.2-1.7c0.2-0.1,0.5-0.1,0.7-0.1c0.8,0,1.4,0.5,1.7,1.2c0.1,0.2,0.1,0.5,0.1,0.7
	l-2.3,68.7L810.5,146.4L810.5,146.4z"/>
<g>
	<path fill="#FFFFFF" d="M910.4,167l51.5-47.1c0.5-0.4,0.7-1,0.8-1.6c0-0.6-0.2-1.2-0.6-1.7l-26.8-29.3c-0.9-0.9-2.3-1-3.3-0.1
		c-0.9,0.9-1,2.3-0.1,3.3l25.3,27.6l-49.8,45.5c-0.9,0.9-1,2.3-0.1,3.3C908,167.8,909.5,167.9,910.4,167z"/>
	<path fill="#FFFFFF" d="M910.4,167l0.5,0.5l51.5-47.1c0.6-0.5,0.9-1.3,1-2.1c0-0.8-0.3-1.6-0.8-2.2l-26.8-29.3
		c-1.1-1.2-3.1-1.3-4.3-0.2c-1.2,1.1-1.3,3.1-0.2,4.3L956,118l-49.2,45c-1.2,1.1-1.3,3.1-0.2,4.3c1.1,1.2,3.1,1.3,4.3,0.2L910.4,167
		l-0.5-0.5c-0.6,0.6-1.7,0.5-2.3-0.1c-0.6-0.6-0.5-1.7,0.1-2.2l50.3-46l-25.8-28.2c-0.3-0.3-0.4-0.7-0.4-1.1c0-0.4,0.2-0.8,0.5-1.1
		c0.3-0.3,0.7-0.4,1.1-0.4c0.4,0,0.8,0.2,1.1,0.5l26.8,29.3c0.3,0.3,0.4,0.7,0.4,1.1c0,0.4-0.2,0.8-0.5,1.1l-51.5,47.1L910.4,167z"
		/>
	<path fill="#FFFFFF" d="M903.1,158.6l41.9-38.3c0.7-0.7,0.8-1.8,0.1-2.6c-0.7-0.7-1.8-0.8-2.6-0.1L900.6,156
		c-0.7,0.7-0.8,1.8-0.1,2.6C901.2,159.3,902.3,159.3,903.1,158.6"/>
	<path fill="#FFFFFF" d="M903.6,159.2l41.9-38.3c1-0.9,1.1-2.5,0.2-3.6c-0.9-1-2.6-1.1-3.6-0.2l-41.9,38.3c-1,0.9-1.1,2.5-0.2,3.6
		C900.9,160.1,902.5,160.1,903.6,159.2l-1-1.1c-0.4,0.4-1.1,0.4-1.5-0.1c-0.4-0.4-0.4-1.1,0.1-1.5l41.9-38.3
		c0.4-0.4,1.1-0.4,1.5,0.1c0.4,0.4,0.4,1.1-0.1,1.5l-41.9,38.3L903.6,159.2z"/>
</g>
<path fill="#FFFFFF" d="M1239.4,21.1l1.8-1.1L1239.4,21.1L1239.4,21.1l1.8-1.1L1239.4,21.1L1239.4,21.1c0.1,0.2,0.5,1,0.9,2.2
	c0.6,1.9,1.3,4.7,0.9,7.7c-0.2,1.5-0.6,3.1-1.4,4.7c-0.8,1.6-2,3.3-3.7,5c-0.1,0.1-0.3,0.2-0.4,0.4c-1,0.9-1.9,1.5-3,1.9
	c-1.8,0.7-3.7,1-6.1,0.9c-1.7,0-3.6-0.2-5.7-0.4c-3-0.3-6.4-0.5-9.9,0.1c-1.8,0.3-3.6,0.8-5.3,1.7c-1.8,0.8-3.5,2-5.2,3.5
	c-0.2,0.2-0.4,0.3-0.5,0.5c-3.6,3.4-5.8,7.1-7,10.8c-0.9,2.7-1.3,5.4-1.3,7.8c0,3.6,0.7,6.7,1.4,9c0.7,2.2,1.4,3.6,1.5,3.7
	c0.9,1.7,3,2.3,4.7,1.4c1.7-0.9,2.3-3,1.4-4.7L1199,78l1.7-0.9l0,0L1199,78l1.7-0.9c0,0,0,0-0.1-0.1c-0.4-0.7-1.9-4.3-2-8.6
	c-0.1-2.2,0.2-4.5,1.1-6.9c0.9-2.4,2.4-4.9,5-7.4c0.1-0.1,0.3-0.3,0.4-0.4c1.2-1.1,2.4-1.8,3.5-2.4c2.1-1,4.2-1.3,6.6-1.3
	c1.8,0,3.7,0.1,5.6,0.3c3,0.3,6.1,0.6,9.5,0.2c1.7-0.2,3.4-0.6,5-1.3c1.7-0.7,3.3-1.7,4.8-3.1c0.2-0.2,0.3-0.3,0.5-0.5
	c3.2-3.1,5.2-6.4,6.3-9.7c0.8-2.4,1.1-4.8,1.1-7c0-3.2-0.7-6-1.4-8c-0.7-2-1.4-3.2-1.4-3.3c-0.9-1.6-3.1-2.2-4.7-1.3
	C1239.1,17.4,1238.5,19.5,1239.4,21.1L1239.4,21.1z"/>
<path fill="#FFFFFF" d="M1239.4,21.1l0.4,0.6l1.8-1.1l-0.7-1.3l-2.5,1.4l0.4,0.7l0.4,0.6l2.4-1.4l-0.7-1.3l-2.5,1.4l0.3,0.6l0,0l0,0
	c0.1,0.1,0.5,0.9,0.9,2.1l0,0c0.6,1.8,1.2,4.5,0.8,7.3l0,0c-0.2,1.4-0.6,2.9-1.3,4.5l0,0c-0.8,1.5-1.9,3.1-3.6,4.8
	c-0.1,0.1-0.2,0.2-0.4,0.3l0,0c-0.9,0.8-1.8,1.4-2.8,1.8l0,0c-1.6,0.7-3.5,0.9-5.8,0.9c-1.7,0-3.6-0.2-5.6-0.4l0,0
	c-3-0.3-6.4-0.5-10.1,0.1c-1.8,0.3-3.7,0.8-5.5,1.7c-1.8,0.9-3.7,2.1-5.4,3.6c-0.2,0.2-0.4,0.3-0.6,0.5l0,0c-3.7,3.5-5.9,7.3-7.2,11
	l0,0c-0.9,2.8-1.3,5.5-1.3,8c0,3.7,0.7,6.9,1.4,9.2l0,0c0.7,2.3,1.5,3.7,1.6,3.9l0,0.1l0-0.1c0.2,0.3,0.4,0.6,0.7,0.9
	c1.3,1.3,3.3,1.7,5,0.8c0.3-0.2,0.6-0.4,0.9-0.7c1.3-1.3,1.7-3.3,0.8-5l-0.3-0.6l-2.3,1.2l0.7,1.3l2.3-1.2l-0.4-0.7l-0.3-0.6
	l-2.3,1.2l0.7,1.3l2.5-1.3l-0.7-0.7l-0.5,0.5l0.6-0.4c0,0,0,0-0.1-0.1l-0.5,0.5l0.6-0.4l-0.6,0.4l0.6-0.4l0-0.1l-0.6,0.4l0.6-0.4
	l-0.5,0.3l0.5-0.3l0,0l-0.5,0.3l0.5-0.3v0l-0.1-0.1l0,0l0,0c-0.3-0.7-1.8-4.1-1.9-8.3l0,0c-0.1-2.1,0.2-4.3,1.1-6.7l0,0
	c0.9-2.3,2.3-4.7,4.8-7.1c0.1-0.1,0.3-0.3,0.4-0.4c1.1-1,2.2-1.7,3.4-2.3c1.9-0.9,4-1.2,6.3-1.3l0,0c1.7,0,3.6,0.1,5.6,0.3l0,0
	c3,0.3,6.2,0.6,9.6,0.2h0c1.7-0.2,3.5-0.6,5.2-1.4l0,0c1.8-0.7,3.5-1.8,5-3.2l0,0c0.2-0.2,0.3-0.3,0.5-0.5l0,0
	c3.3-3.1,5.4-6.6,6.5-10l0,0c0.8-2.5,1.1-5,1.1-7.2c0-3.3-0.7-6.2-1.4-8.2l0-0.1l0,0.1c-0.7-2-1.4-3.3-1.5-3.4l0,0
	c-0.2-0.3-0.4-0.6-0.6-0.8c-1.3-1.4-3.4-1.7-5.1-0.7c-0.3,0.2-0.6,0.4-0.8,0.6c-1.4,1.3-1.7,3.4-0.7,5.1l0.5,0.8l0.7-0.6
	L1239.4,21.1l0.4,0.6L1239.4,21.1l-0.5-0.5l0,0L1239.4,21.1l0.6-0.4c-0.6-1.1-0.4-2.5,0.5-3.3c0.2-0.1,0.3-0.3,0.5-0.4
	c1.1-0.6,2.5-0.4,3.3,0.5c0.1,0.2,0.3,0.3,0.4,0.5l0,0c0.1,0.1,0.7,1.3,1.4,3.2l0,0.1l0-0.1c0.7,1.9,1.3,4.6,1.4,7.7
	c0,2.1-0.3,4.4-1.1,6.7l0,0c-1,3.1-3,6.4-6.1,9.4l0,0c-0.2,0.2-0.3,0.3-0.5,0.5l0,0c-1.5,1.3-3,2.3-4.6,3l0,0
	c-1.6,0.7-3.2,1.1-4.9,1.3l0,0c-3.2,0.4-6.3,0.1-9.3-0.2h0c-2-0.2-3.9-0.3-5.7-0.3h0c-2.4,0-4.7,0.4-6.9,1.4
	c-1.2,0.6-2.5,1.4-3.7,2.5c-0.2,0.1-0.3,0.3-0.4,0.4c-2.7,2.5-4.3,5.1-5.2,7.6v0c-0.9,2.5-1.2,5-1.2,7.2l0,0
	c0.1,4.5,1.7,8.1,2.1,8.9l0.7-0.3l-0.7,0.3l0.1,0.1l0,0l0,0l0,0l0,0l0,0l0,0c0,0,0,0,0.1,0.1l0.5-0.5l-0.3-0.6l-1.7,0.9l0.7,1.3
	l1.7-0.9l-0.3-0.6l-0.6,0.4l0,0l0.6-0.4l-0.3-0.6l-1.7,0.9l0.7,1.3l1.7-0.9l-0.3-0.6l-0.6,0.3c0.6,1.1,0.3,2.4-0.5,3.3
	c-0.2,0.2-0.4,0.3-0.6,0.4c-1.1,0.6-2.4,0.3-3.3-0.5c-0.2-0.2-0.3-0.4-0.4-0.6l0-0.1l0,0.1c-0.1-0.1-0.8-1.4-1.5-3.6l0,0
	c-0.7-2.2-1.4-5.2-1.3-8.7c0-2.3,0.4-4.9,1.2-7.6l0-0.1l0,0.1c1.2-3.5,3.3-7.1,6.8-10.4l0,0c0.2-0.2,0.4-0.3,0.5-0.5
	c1.6-1.5,3.3-2.6,5-3.4c1.7-0.8,3.4-1.3,5.2-1.6c3.4-0.6,6.7-0.3,9.7-0.1l0,0c2,0.2,3.9,0.4,5.7,0.4c2.4,0,4.5-0.2,6.4-1l0,0
	c1.1-0.4,2.1-1.1,3.2-2l0,0c0.1-0.1,0.3-0.2,0.4-0.4c1.8-1.7,3.1-3.5,3.9-5.2l0,0c0.8-1.7,1.3-3.3,1.5-4.9l0,0
	c0.4-3.2-0.2-6.1-0.9-8l0-0.1l0,0.1c-0.4-1.3-0.9-2.1-1-2.3L1239.4,21.1l0.6-0.3l0,0L1239.4,21.1l0.4,0.6l1.8-1l-0.7-1.3l-1.8,1.1
	L1239.4,21.1l0.6-0.4l0,0L1239.4,21.1l0.4,0.6l1.8-1l-0.7-1.3l-1.9,1.1l-0.1,0.1L1239.4,21.1z"/>
<g>
	<path fill="#FFFFFF" d="M1226.2,118l38,65.4c1.1,1.9,3.5,2.5,5.4,1.4c1.9-1.1,2.5-3.5,1.4-5.4l-38-65.4c-1.1-1.9-3.5-2.5-5.4-1.4
		C1225.8,113.6,1225.1,116.1,1226.2,118"/>
	<path fill="#FFFFFF" d="M1225.2,118.6l38,65.4c1.5,2.5,4.6,3.3,7.1,1.9c2.5-1.4,3.3-4.6,1.9-7.1l-38-65.4c-1.4-2.5-4.6-3.3-7.1-1.9
		C1224.6,112.9,1223.7,116.1,1225.2,118.6l2.2-1.2c-0.8-1.3-0.3-3,1-3.7c1.3-0.8,3-0.3,3.7,1l38,65.4c0.8,1.3,0.3,3-1,3.7
		c-0.7,0.4-1.4,0.5-2.1,0.3c-0.7-0.2-1.3-0.6-1.7-1.3l-38-65.4L1225.2,118.6z"/>
</g>
<rect x="175.7" y="1.6" fill="none" width="947.4" height="122.6"/>
<rect x="-769.4" y="1.6" fill="none" width="947.4" height="122.6"/>
<rect x="904.4" y="1.6" fill="none" width="947.4" height="122.6"/>
<g>
</g>
<g>
</g>
<g>
</g>
<g>
</g>
<g>
</g>
<g>
</g>
</svg>
